<?xml version="1.0" encoding="UTF-8" standalone="no"?>
<svg
   xmlns:dc="http://purl.org/dc/elements/1.1/"
   xmlns:cc="http://creativecommons.org/ns#"
   xmlns:rdf="http://www.w3.org/1999/02/22-rdf-syntax-ns#"
   xmlns:svg="http://www.w3.org/2000/svg"
   xmlns="http://www.w3.org/2000/svg"
   xmlns:sodipodi="http://sodipodi.sourceforge.net/DTD/sodipodi-0.dtd"
   xmlns:inkscape="http://www.inkscape.org/namespaces/inkscape"
   width="210mm"
   height="297mm"
   viewBox="0 0 744.09448819 1052.3622047"
   id="svg2"
   version="1.1"
   inkscape:version="0.91 r13725"
   sodipodi:docname="drawing.svg">
  <sodipodi:namedview
     pagecolor="#ffffff"
     bordercolor="#666666"
     borderopacity="1"
     objecttolerance="10"
     gridtolerance="10"
     guidetolerance="10"
     inkscape:pageopacity="0"
     inkscape:pageshadow="2"
     inkscape:window-width="1366"
     inkscape:window-height="705"
     id="namedview4165"
     showgrid="false"
     inkscape:zoom="0.50933034"
     inkscape:cx="372.04724"
     inkscape:cy="528.19655"
     inkscape:window-x="-8"
     inkscape:window-y="-8"
     inkscape:window-maximized="1"
     inkscape:current-layer="layer1" />
  <defs
     id="defs4">
    <clipPath
       id="clipPath4329"
       clipPathUnits="userSpaceOnUse">
      <path
         style="fill:#6d2d79;fill-opacity:1;fill-rule:evenodd;stroke:none;stroke-width:1px;stroke-linecap:butt;stroke-linejoin:miter;stroke-opacity:1"
         d="m 223.44574,244.98674 c -2.73783,20.24771 -10.28831,39.5603 -21.74353,55.3311 C 126.80403,329.86766 82.298007,360.19883 67.577875,417.8904 55.70048,464.44063 59.977441,533.93098 94.313708,640.06245 113.39653,699.04636 150.72803,823.36717 139,912.375 c 95.88868,72.32364 188.03138,71.68239 268.5625,5.6875 C 398.41356,841.1798 427.06934,742.33351 451.125,672 509.55509,501.16317 517.47327,400.3514 433.45646,342.3907 c -20.02883,-13.8173 -46.56393,-27.75498 -61.38837,-34.62698 -21.43634,-9.937 -36.64188,-24.96066 -37.60658,-62.95376 z"
         id="path4331" />
    </clipPath>
    <clipPath
       id="clipPath4372"
       clipPathUnits="userSpaceOnUse">
      <path
         style="fill:#437471;fill-opacity:1;fill-rule:evenodd;stroke:none;stroke-width:1px;stroke-linecap:butt;stroke-linejoin:miter;stroke-opacity:1"
         d="m 166.25,69.250003 229.75,0 L 371.25,185 c -65.01702,61.03126 -127.79028,43.59646 -178.75,9.25 z"
         id="path4374" />
    </clipPath>
    <clipPath
       id="clipPath4376"
       clipPathUnits="userSpaceOnUse">
      <path
         style="fill:#437471;fill-opacity:1;fill-rule:evenodd;stroke:none;stroke-width:1px;stroke-linecap:butt;stroke-linejoin:miter;stroke-opacity:1"
         d="m 166.25,69.250003 229.75,0 L 371.25,185 c -65.01702,61.03126 -127.79028,43.59646 -178.75,9.25 z"
         id="path4378" />
    </clipPath>
  </defs>
  <metadata
     id="metadata7">
    <rdf:RDF>
      <cc:Work
         rdf:about="">
        <dc:format>image/svg+xml</dc:format>
        <dc:type
           rdf:resource="http://purl.org/dc/dcmitype/StillImage" />
        <dc:title></dc:title>
      </cc:Work>
    </rdf:RDF>
  </metadata>
  <g
     id="layer1">
    <path
       id="path4380"
       d="m 308.082,206.47903 c 0.41421,58.53122 -12.11399,88.36568 -65.78606,108.23023 -95.54726,35.36296 -155.244432,97.51485 -80.69953,299.45728 39.05871,105.81021 76.22761,228.68344 51.37973,311.08653 101.93639,91.50983 208.64694,110.92383 310.41987,-0.35356 -20.09228,-69.15589 18.07211,-201.2808 50.20458,-282.1356 33.37214,-83.97418 47.91768,-135.32739 46.88331,-189.14839 -1.42148,-73.96353 -41.76647,-108.64304 -97.795,-130.46388 -67.63371,-26.34059 -78.00108,-55.76138 -77.78174,-123.74368 z"
       style="opacity:1;fill:#a2c4c5;fill-opacity:1;fill-rule:evenodd;stroke:none;stroke-width:1px;stroke-linecap:butt;stroke-linejoin:miter;stroke-opacity:1;image-rendering:optimizeSpeed" />
    <path
       id="path4364"
       d="m 261.84641,80.416533 229.75,0 -24.75,115.750007 c -65.01702,61.03126 -127.79028,43.59646 -178.75,9.25 z"
       style="opacity:1;fill:#437471;fill-opacity:1;fill-rule:evenodd;stroke:none;stroke-width:1px;stroke-linecap:butt;stroke-linejoin:miter;stroke-opacity:1" />
    <path
       clip-path="url(#clipPath4376)"
       id="path4366"
       d="M 236.5,221.75 211,104.25 c 0,0 26.25,17.25 46,22.5 19.75,5.25 52.25,0.75 52.25,0.75 L 308,234.25 272.75,234.5 Z"
       style="opacity:1;fill:#5d9596;fill-opacity:1;fill-rule:evenodd;stroke:none;stroke-width:1px;stroke-linecap:butt;stroke-linejoin:miter;stroke-opacity:1"
       transform="translate(95.596404,11.16653)" />
    <path
       clip-path="url(#clipPath4372)"
       id="path4368"
       d="m 163.08917,65.200447 c 77.9423,100.895733 160.31254,96.387903 236.25458,-0.106694 z"
       style="opacity:1;fill:#b8d3ce;fill-opacity:1;fill-rule:evenodd;stroke:none;stroke-width:1px;stroke-linecap:butt;stroke-linejoin:miter;stroke-opacity:1"
       transform="translate(95.596404,11.16653)" />
    <path
       id="path4362"
       d="m 290.14423,40.08494 12.07718,61.26909 c 48.04693,39.94148 98.95739,46.16745 147.72388,0.91513 l 8.87009,-63.798204 z"
       style="opacity:1;fill:#88653f;fill-opacity:1;fill-rule:evenodd;stroke:none;stroke-width:1px;stroke-linecap:butt;stroke-linejoin:miter;stroke-opacity:1" />
    <path
       id="path4333"
       d="m 458.85642,37.873912 c 0,10.902274 -38.41291,15.561638 -84.74132,15.999389 -46.32841,0.437752 -83.93515,-4.514045 -84.02869,-14.414149 -0.0912,-9.648355 37.41291,-15.561637 83.74132,-15.999389 46.32841,-0.437751 85.02869,5.139113 85.02869,14.414149 z"
       style="opacity:1;fill:#cbb770;fill-opacity:1;fill-rule:evenodd;stroke:none;stroke-width:1px;stroke-linecap:butt;stroke-linejoin:miter;stroke-opacity:1" />
    <ellipse
       ry="2.2539029"
       rx="6.8955922"
       cy="37.856796"
       cx="324.75836"
       id="path4338"
       style="opacity:1;fill:#7b5e2d;fill-opacity:1;fill-rule:evenodd;stroke:none;stroke-width:1px;stroke-linecap:butt;stroke-linejoin:miter;stroke-opacity:1" />
    <ellipse
       ry="2.563262"
       rx="6.7617087"
       cy="35.057396"
       cx="411.33344"
       id="path4340"
       style="opacity:1;fill:#7b5e2d;fill-opacity:1;fill-rule:evenodd;stroke:none;stroke-width:1px;stroke-linecap:butt;stroke-linejoin:miter;stroke-opacity:1" />
    <ellipse
       ry="1.9445436"
       rx="6.3639612"
       cy="39.601814"
       cx="432.95956"
       id="path4342"
       style="opacity:1;fill:#7b5e2d;fill-opacity:1;fill-rule:evenodd;stroke:none;stroke-width:1px;stroke-linecap:butt;stroke-linejoin:miter;stroke-opacity:1" />
    <ellipse
       transform="matrix(0.84087695,0.54122634,-0.54122634,0.84087695,0,0)"
       ry="2.5951395"
       rx="3.3366601"
       cy="-104.03515"
       cx="304.70206"
       id="path4344"
       style="opacity:1;fill:#3d301c;fill-opacity:1;fill-rule:evenodd;stroke:none;stroke-width:1px;stroke-linecap:butt;stroke-linejoin:miter;stroke-opacity:1" />
    <ellipse
       ry="4.640388"
       rx="4.5740972"
       cy="77.653008"
       cx="339.43774"
       id="path4346"
       style="opacity:1;fill:#3d301c;fill-opacity:1;fill-rule:evenodd;stroke:none;stroke-width:1px;stroke-linecap:butt;stroke-linejoin:miter;stroke-opacity:1" />
    <ellipse
       transform="matrix(0.94442962,-0.32871369,0.32871369,0.94442962,0,0)"
       ry="4.0879612"
       rx="3.7123106"
       cy="197.541"
       cx="279.49463"
       id="path4348"
       style="opacity:1;fill:#3d301c;fill-opacity:1;fill-rule:evenodd;stroke:none;stroke-width:1px;stroke-linecap:butt;stroke-linejoin:miter;stroke-opacity:1" />
    <ellipse
       ry="7.5130095"
       rx="7.115262"
       cy="97.761353"
       cx="400.66879"
       id="path4352"
       style="opacity:1;fill:#3d301c;fill-opacity:1;fill-rule:evenodd;stroke:none;stroke-width:1px;stroke-linecap:butt;stroke-linejoin:miter;stroke-opacity:1" />
    <ellipse
       transform="matrix(0.96257673,0.27100931,-0.27100931,0.96257673,0,0)"
       ry="4.1984463"
       rx="4.6845822"
       cy="-39.515553"
       cx="423.62332"
       id="path4356"
       style="opacity:1;fill:#3d301c;fill-opacity:1;fill-rule:evenodd;stroke:none;stroke-width:1px;stroke-linecap:butt;stroke-linejoin:miter;stroke-opacity:1" />
    <ellipse
       ry="3.3587573"
       rx="3.4471455"
       cy="96.258751"
       cx="427.7598"
       id="path4360"
       style="opacity:1;fill:#3d301c;fill-opacity:1;fill-rule:evenodd;stroke:none;stroke-width:1px;stroke-linecap:butt;stroke-linejoin:miter;stroke-opacity:1" />
    <path
       clip-path="url(#clipPath4329)"
       id="path4316"
       d="m 136.56536,915.20969 c 25.57561,-37.31639 262.07866,-42.63089 271.54556,4.89387 l -27.68747,58.68324 -175.36248,15.55635 -74.95332,-80.61018 z"
       style="opacity:1;fill:#004455;fill-opacity:1;fill-rule:evenodd;stroke:none;stroke-width:1px;stroke-linecap:butt;stroke-linejoin:miter;stroke-opacity:1"
       transform="translate(95.596404,11.16653)" />
    <ellipse
       transform="matrix(0.98091268,0.19444877,-0.19444877,0.98091268,0,0)"
       ry="12.75"
       rx="10.25"
       cy="596.48712"
       cx="433.60904"
       id="path4308"
       style="opacity:1;fill:#ffffff;fill-opacity:1;fill-rule:evenodd;stroke:none;stroke-width:1px;stroke-linecap:butt;stroke-linejoin:miter;stroke-opacity:1" />
    <ellipse
       transform="matrix(0.90200409,0.43172749,-0.43172749,0.90200409,0,0)"
       ry="83.184494"
       rx="48.155167"
       cy="279.17474"
       cx="400.02939"
       id="path4156"
       style="opacity:1;fill:#ffffff;fill-opacity:1;fill-rule:evenodd;stroke:none;stroke-width:1px;stroke-linecap:butt;stroke-linejoin:miter;stroke-opacity:1" />
    <ellipse
       transform="matrix(0.99712608,-0.07576001,0.07576001,0.99712608,0,0)"
       ry="36.02964"
       rx="23.985336"
       cy="578.74896"
       cx="170.42802"
       id="path4158"
       style="opacity:1;fill:#ffffff;fill-opacity:1;fill-rule:evenodd;stroke:none;stroke-width:1px;stroke-linecap:butt;stroke-linejoin:miter;stroke-opacity:1" />
  </g>
</svg>
