<?xml version="1.0" encoding="UTF-8" standalone="no"?>
<!-- Created with Inkscape (http://www.inkscape.org/) -->

<svg xmlns:svg="http://www.w3.org/2000/svg" xmlns="http://www.w3.org/2000/svg" version="1.1" width="258.82126" height="146.88818" viewBox="0 0 258.82126 146.88819" id="svg2">
  <defs id="defs4" />
  <g id="char">
    <ellipse cx="110.89286" cy="259.86221" rx="9.0602474" ry="10.488819" transform="translate(-92.737254,-247.43102)" id="path3347" style="fill:none;stroke:black;stroke-width:1.09379137px;stroke-linecap:butt;stroke-linejoin:miter;stroke-opacity:1" />
    <path d="M 11.012746,22.96742 11.012746,42.96742 10.477876,45.82456 10.656446,57.96742 11.964476,58.94956 12.053776,63.94844 10.835026,64.03774 10.835026,69.75258 16.905336,69.75258 16.905336,64.03774 14.881896,64.03774 14.792596,58.59243 16.012746,56.71743 16.459176,46.53886 18.958896,46.62816 19.405326,55.82486 20.476186,55.91416 20.565486,62.61338 C 20.004786,63.03405 19.674256,63.69367 19.672916,64.39463 19.672766,65.62762 19.600116,66.80493 20.833066,66.80478 21.534716,66.80406 24.491276,66.53776 24.491276,66.53776 L 28.155336,66.53776 28.032286,63.94596 C 28.188836,62.28239 27.131376,62.78776 25.745176,62.78776 L 24.165096,62.78776 C 24.127496,62.74796 24.088396,62.70946 24.047916,62.67253 L 24.047916,55.82487 25.477596,55.82487 25.477596,40.46745 24.227596,40.46745 24.227596,22.96745 z" id="path3351" style="fill:none;stroke:black" />
    <path d="M 23.869886,22.96689 26.109946,22.853 28.512746,28.68117 29.137746,37.3419 C 30.963086,38.0686 31.252866,39.17919 31.191316,40.37761 31.239916,42.76651 30.475856,43.53001 29.584176,44.03831 L 25.495826,41.75312 z" id="rect3378" style="fill:none;stroke:black" />
    <path d="M 11.431636,23.03249 9.191576,22.9186 6.788781,28.74677 5.717351,36.96107 5.717351,44.10391 C 7.378966,44.88839 9.087556,45.29706 10.985206,44.19321 z" id="rect3378-3" style="fill:none;stroke:black" />
    <ellipse cx="113.89471" cy="265.32709" rx="1.0663524" ry="2.202774" transform="translate(-92.737254,-247.43102)" id="path3654" style="fill:none;stroke:black;stroke-width:0.88760048" />
    <ellipse cx="107.07617" cy="265.32709" rx="1.0663524" ry="2.202774" transform="translate(-92.737254,-247.43102)" id="path3654-3" style="fill:none;stroke:black;stroke-width:0.88760048;display:inline" />
    <ellipse cx="148.94762" cy="259.99072" rx="9.0602474" ry="10.488819" transform="translate(-95.0843,-247.55953)" id="path3347-0" style="fill:none;stroke:black;stroke-width:1.09379137px;stroke-linecap:butt;stroke-linejoin:miter;stroke-opacity:1" />
    <path d="M 46.72046,22.96744 46.72046,42.96744 46.63206,45.37815 46.63206,58.14601 48.20795,58.94958 48.38652,64.03775 46.54277,64.03775 46.54277,69.75259 52.61308,69.75259 52.61308,64.03775 51.66107,63.85918 51.83964,56.71744 53.14907,54.30673 52.88121,47.07458 55.73808,46.89601 55.11308,55.82486 56.89823,55.82486 56.56227,58.47815 55.55894,59.39908 C 55.78903,61.86067 53.90317,65.24458 56.6301,65.55477 57.33175,65.55405 61.62759,65.64487 61.62759,65.64487 61.94321,61.75645 60.09814,61.0376 60.29137,59.01178 L 60.46995,55.82483 61.18534,55.82483 61.18534,40.46741 59.93534,40.46741 59.93534,22.96741 z" id="path3351-3" style="fill:none;stroke:black" />
    <path d="M 59.5776,22.96691 61.81766,22.85302 65.8276,28.32405 66.18475,37.34192 C 68.01009,38.06862 67.58558,39.98278 67.52403,41.1812 67.57263,45.53439 63.05857,45.76217 62.16689,46.27047 L 61.89903,44.03833 z" id="rect3378-4" style="fill:none;stroke:black" />
    <path d="M 47.13935,23.03251 44.89929,22.91862 42.4965,28.74679 41.42507,36.96109 39.41301,39.8777 39.81793,43.30036 C 41.47954,44.08484 43.18813,44.49351 45.08578,43.38966 z" id="rect3378-3-8" style="fill:none;stroke:black" />
    <ellipse cx="152.6593" cy="264.56949" rx="1.0663524" ry="2.202774" transform="translate(-95.0843,-247.55953)" id="path3654-9" style="fill:none;stroke:black;stroke-width:0.88760048;display:inline" />
    <ellipse cx="145.84077" cy="264.56949" rx="1.0663524" ry="2.202774" transform="translate(-95.0843,-247.55953)" id="path3654-3-0" style="fill:none;stroke:black;stroke-width:0.88760048;display:inline" />
    <ellipse cx="188.21674" cy="258.54526" rx="9.0505857" ry="11.119338" transform="translate(-99.407718,-247.52103)" id="path3347-0-9" style="fill:none;stroke:black;stroke-width:1.12558675px;stroke-linecap:butt;stroke-linejoin:miter;stroke-opacity:1" />
    <path d="M 81.673772,21.301 81.673772,43.39613 81.585472,45.95176 81.585472,59.48714 83.159682,60.33902 83.338062,65.73305 81.496272,65.73305 81.496272,71.79143 87.560112,71.79143 87.560112,65.73305 86.609112,65.54375 86.787492,57.97269 88.095532,55.41707 87.827952,47.75017 90.681782,47.56086 90.325302,53.18717 92.108552,53.18717 91.058662,55.99996 90.234972,57.06554 C 90.464812,59.6751 89.116682,63.17314 91.840712,63.50198 92.541612,63.50121 95.225722,63.32963 95.225722,63.32963 97.237432,59.0289 96.733622,56.92754 94.962352,55.49423 L 95.676462,53.18713 96.391092,53.18713 96.175212,43.16026 93.539972,43.62714 92.092582,40.05032 94.377782,35.80786 94.874562,21.30096 C 88.346522,21.49441 85.875042,21.31906 81.673772,21.301 z" id="path3351-3-2" style="fill:none;stroke:black;stroke-width:1.02906895" />
    <path d="M 94.517202,22.1933 96.844162,21.35828 100.84983,27.15819 100.31374,36.27173 C 100.31374,36.27173 99.213072,38.17849 99.151592,39.44895 99.200192,44.06382 94.512322,42.966 93.621592,43.50486 L 92.282592,40.06711 94.784482,35.5884 z" id="rect3378-4-8" style="fill:none;stroke:black;stroke-width:1.02906895" />
    <path d="M 82.092222,22.26285 80.211682,21.07068 77.454322,28.32063 76.384032,37.02872 C 76.619772,39.80503 75.581342,40.85882 77.010742,41.96336 78.670582,42.79499 79.930922,44.38894 81.826552,43.21877 z" id="rect3378-3-8-7" style="fill:none;stroke:black;stroke-width:1.02906895" />
    <ellipse cx="191.29764" cy="263.43307" rx="1.0663524" ry="2.202774" transform="translate(-99.407718,-247.52103)" id="path3654-7" style="fill:none;stroke:black;stroke-width:0.88760048;display:inline" />
    <ellipse cx="184.47911" cy="263.43307" rx="1.0663524" ry="2.202774" transform="translate(-99.407718,-247.52103)" id="path3654-3-8" style="fill:none;stroke:black;stroke-width:0.88760048;display:inline" />
    <ellipse cx="226.68892" cy="258.56308" rx="9.0278044" ry="10.149538" transform="translate(-102.62169,-247.42273)" id="path3347-0-9-5" style="fill:none;stroke:black;stroke-width:1.17115009px;stroke-linecap:butt;stroke-linejoin:miter;stroke-opacity:1" />
    <path d="M 116.932,20.23787 116.932,42.333 116.8437,44.88863 116.8437,58.42401 118.41791,59.27589 118.59629,64.66992 116.7545,64.66992 116.7545,70.7283 122.81834,70.7283 122.81834,64.66992 121.86734,64.48062 122.04572,56.90956 123.35376,54.35394 123.08618,46.68704 125.94001,46.49773 125.58353,52.12404 127.36678,52.12404 126.31689,54.93683 125.4932,56.00241 C 125.7561,58.53757 125.5519,59.46177 127.09894,62.43885 127.79984,62.43808 130.48395,62.2665 130.48395,62.2665 132.49566,57.96577 131.99185,55.86441 130.22058,54.4311 L 130.93469,52.124 131.64932,52.124 131.46274,43.45799 130.78532,40.97431 130.13279,39.68268 130.13279,20.23783 C 123.60475,20.43128 121.13327,20.25593 116.932,20.23787 z" id="path3351-3-2-4" style="fill:none;stroke:black;stroke-width:1.02906895" />
    <path d="M 129.77543,21.13017 132.60747,21.11587 136.10806,26.09503 136.32958,35.46111 C 136.32958,35.46111 136.42848,39.38817 136.36698,40.65863 136.41558,45.2735 132.16965,42.66045 131.27892,43.19931 L 130.31873,38.94082 131.62106,35.66166 131.60286,32.2124 z" id="rect3378-4-8-9" style="fill:none;stroke:black;stroke-width:1.02906895" />
    <path d="M 117.35045,21.19972 115.0911,21.96472 112.71255,27.2575 111.64226,35.96559 C 111.878,38.7419 109.89255,40.61644 111.32195,41.72098 112.98179,42.55261 115.06288,43.83089 116.95851,42.66072 z" id="rect3378-3-8-7-2" style="fill:none;stroke:black;stroke-width:1.02906895" />
    <ellipse cx="230.44106" cy="262.80173" rx="1.0663524" ry="2.202774" transform="translate(-102.62169,-247.42273)" id="path3654-95" style="fill:none;stroke:black;stroke-width:0.88760048;display:inline" />
    <ellipse cx="223.62251" cy="262.80173" rx="1.0663524" ry="2.202774" transform="translate(-102.62169,-247.42273)" id="path3654-3-80" style="fill:none;stroke:black;stroke-width:0.88760048;display:inline" />
    <ellipse cx="-265.68896" cy="259.86447" rx="9.0602474" ry="10.488819" transform="matrix(-1,0,0,1,-107.40961,-247.43328)" id="path3347-0-90" style="fill:none;stroke:black;stroke-width:1.09379137px;stroke-linecap:butt;stroke-linejoin:miter;stroke-opacity:1" />
    <path d="M 165.42219,22.96743 165.42219,42.96743 165.51059,45.37814 165.51059,58.146 163.9347,58.94957 163.75613,64.03774 165.59988,64.03774 165.59988,69.75258 159.52957,69.75258 159.52957,64.03774 160.48158,63.85917 160.30301,56.71743 158.99358,54.30672 159.26144,47.07457 156.40457,46.896 157.02957,55.82485 155.24442,55.82485 155.58038,58.47814 156.58371,59.39907 C 156.35362,61.86066 158.23948,65.24457 155.51255,65.55476 154.8109,65.55404 150.51506,65.64486 150.51506,65.64486 150.19944,61.75644 152.04451,61.03759 151.85128,59.01177 L 151.6727,55.82482 150.95731,55.82482 150.95731,40.4674 152.20731,40.4674 152.20731,22.9674 z" id="path3351-3-9" style="fill:none;stroke:black" />
    <path d="M 152.56505,22.9669 150.32499,22.85301 146.31505,28.32404 145.9579,37.34191 C 144.13256,38.06861 144.55707,39.98277 144.61862,41.18119 144.57002,45.53438 149.08408,45.76216 149.97576,46.27046 L 150.24362,44.03832 C 151.36036,43.28684 150.55069,41.25108 150.70422,39.85746 z" id="rect3378-4-0" style="fill:none;stroke:black" />
    <path d="M 165.0033,23.0325 167.24336,22.91861 169.64615,28.74678 170.71758,36.96108 172.72964,39.87769 172.32472,43.30035 C 170.66311,44.08483 168.95452,44.4935 167.05687,43.38965 z" id="rect3378-3-8-3" style="fill:none;stroke:black" />
    <ellipse cx="269.33194" cy="264.06442" rx="1.0663524" ry="2.202774" transform="translate(-107.40961,-247.43328)" id="path3654-6" style="fill:none;stroke:black;stroke-width:0.88760048;display:inline" />
    <ellipse cx="262.5134" cy="264.06442" rx="1.0663524" ry="2.202774" transform="translate(-107.40961,-247.43328)" id="path3654-3-6" style="fill:none;stroke:black;stroke-width:0.88760048;display:inline" />
    <ellipse cx="-304.17438" cy="258.45752" rx="9.0505857" ry="11.119338" transform="matrix(-1,0,0,1,-110.75011,-247.43329)" id="path3347-0-9-8" style="fill:none;stroke:black;stroke-width:1.12558675px;stroke-linecap:butt;stroke-linejoin:miter;stroke-opacity:1" />
    <path d="M 200.55951,21.30099 200.55951,43.39612 200.64781,45.95175 200.64781,59.48713 199.0736,60.33901 198.89522,65.73304 200.73701,65.73304 200.73701,71.79142 194.67317,71.79142 194.67317,65.73304 195.62417,65.54374 195.44579,57.97268 194.13775,55.41706 194.40533,47.75016 191.5515,47.56085 191.90798,53.18716 190.12473,53.18716 191.17462,55.99995 191.99831,57.06553 C 191.76847,59.67509 193.1166,63.17313 190.39257,63.50197 189.69167,63.5012 187.00756,63.32962 187.00756,63.32962 184.99585,59.02889 185.49966,56.92753 187.27093,55.49422 L 186.55682,53.18712 185.84219,53.18712 185.76229,42.98132 188.59813,43.53594 189.74326,39.75224 187.35871,36.25497 187.35871,21.30095 C 193.88675,21.4944 196.35823,21.31905 200.5595,21.30099 z" id="path3351-3-2-5" style="fill:none;stroke:black;stroke-width:1.02906895" />
    <path d="M 187.71608,22.19329 185.38912,21.35827 181.38345,27.15818 181.91954,36.27172 C 181.91954,36.27172 183.02021,38.17848 183.08169,39.44894 183.03309,44.06381 187.72096,42.96599 188.61169,43.50485 L 189.95069,40.0671 187.4488,35.58839 z" id="rect3378-4-8-2" style="fill:none;stroke:black;stroke-width:1.02906895" />
    <path d="M 200.14106,22.26284 202.0216,21.07067 204.77896,28.32062 205.84925,37.02871 C 205.61351,39.80502 206.65194,40.85881 205.22254,41.96335 203.5627,42.79498 202.30236,44.38893 200.40673,43.21876 z" id="rect3378-3-8-7-0" style="fill:none;stroke:black;stroke-width:1.02906895" />
    <ellipse cx="307.87357" cy="263.25507" rx="1.0663524" ry="2.202774" transform="translate(-110.75011,-247.43329)" id="path3654-31" style="fill:none;stroke:black;stroke-width:0.88760048;display:inline" />
    <ellipse cx="301.05502" cy="263.25507" rx="1.0663524" ry="2.202774" transform="translate(-110.75011,-247.43329)" id="path3654-3-7" style="fill:none;stroke:black;stroke-width:0.88760048;display:inline" />
    <ellipse cx="-342.99393" cy="258.67188" rx="9.0278044" ry="10.149538" transform="matrix(-1,0,0,1,-114.73725,-247.53153)" id="path3347-0-9-5-2" style="fill:none;stroke:black;stroke-width:1.17115009px;stroke-linecap:butt;stroke-linejoin:miter;stroke-opacity:1" />
    <path d="M 235.39192,20.23787 235.39192,42.333 235.48022,44.88863 235.48022,58.42401 233.90601,59.27589 233.72763,64.66992 235.56942,64.66992 235.56942,70.7283 229.50558,70.7283 229.50558,64.66992 230.45658,64.48062 230.2782,56.90956 228.97016,54.35394 229.23774,46.68704 226.38391,46.49773 226.74039,52.12404 224.95714,52.12404 226.00703,54.93683 226.83072,56.00241 C 226.56782,58.53757 226.77202,59.46177 225.22498,62.43885 224.52408,62.43808 221.83997,62.2665 221.83997,62.2665 219.82826,57.96577 220.33207,55.86441 222.10334,54.4311 L 221.38923,52.124 220.6746,52.124 220.94246,39.68268 222.19113,39.68268 222.19113,20.23783 C 228.71917,20.43128 231.19065,20.25593 235.39192,20.23787 z" id="path3351-3-2-4-3" style="fill:none;stroke:black;stroke-width:1.02906895" />
    <path d="M 222.54849,21.13017 219.71645,21.11587 216.21586,26.09503 215.99434,35.46111 C 215.99434,35.46111 215.89544,39.38817 215.95694,40.65863 215.90834,45.2735 220.15427,42.66045 221.045,43.19931 L 222.00519,38.94082 220.70286,35.66166 220.72106,32.2124 z" id="rect3378-4-8-9-5" style="fill:none;stroke:black;stroke-width:1.02906895" />
    <path d="M 234.97347,21.19972 237.23282,21.96472 239.61137,27.2575 240.68166,35.96559 C 240.44592,38.7419 242.43137,40.61644 241.00197,41.72098 239.34213,42.55261 237.26104,43.83089 235.36541,42.66072 z" id="rect3378-3-8-7-2-2" style="fill:none;stroke:black;stroke-width:1.02906895" />
    <ellipse cx="346.62357" cy="263.43362" rx="1.0663524" ry="2.202774" transform="translate(-114.73725,-247.53153)" id="path3654-8" style="fill:none;stroke:black;stroke-width:0.88760048;display:inline" />
    <ellipse cx="339.80502" cy="263.43362" rx="1.0663524" ry="2.202774" transform="translate(-114.73725,-247.53153)" id="path3654-3-1" style="fill:none;stroke:black;stroke-width:0.88760048;display:inline" />
    <ellipse cx="109.67551" cy="335.70602" rx="9.0602474" ry="10.488819" transform="translate(-91.519851,-248.96)" id="path3347-03" style="fill:none;stroke:black;stroke-width:1.09379137px;stroke-linecap:butt;stroke-linejoin:miter;stroke-opacity:1;display:inline" />
    <path d="M 23.939069,97.01441 24.653359,114.87156 25.545369,119.06798 25.366799,130.05013 24.058769,131.03227 23.969469,136.03115 25.188219,136.12045 25.188219,141.83529 19.117909,141.83529 19.117909,136.12045 21.141349,136.12045 21.230649,130.67514 20.010499,128.80014 19.564069,121.65728 16.439349,121.74658 16.439349,129.99685 15.725629,134.01472 15.636329,140.71394 C 16.197029,141.13461 16.527559,141.79423 16.528899,142.49519 16.529049,143.72818 16.601699,144.90549 15.368749,144.90534 14.667099,144.90462 11.710539,144.63832 11.710539,144.63832 L 8.046483,144.63832 8.169533,142.04652 C 8.012983,140.38295 9.070439,140.88832 10.456639,140.88832 L 12.036719,140.88832 C 12.074319,140.84852 12.113419,140.81002 12.153899,140.77309 L 12.153899,133.92543 10.724219,133.92543 11.438509,114.7823 12.331369,113.08587 12.688509,97.2823 z" id="path3351-4" style="fill:none;stroke:black;display:inline" />
    <path d="M 13.046219,97.28174 10.806159,97.16785 8.403356,102.99602 7.778356,111.65675 C 5.953016,112.38345 5.663236,113.49404 5.724786,114.69246 5.676186,117.08136 6.440246,117.84486 7.331926,118.35316 L 10.724789,118.35316 z" id="rect3378-0" style="fill:none;stroke:black;display:inline" />
    <ellipse cx="147.73026" cy="335.83453" rx="9.0602474" ry="10.488819" transform="translate(-93.850562,-249.08851)" id="path3347-0-7" style="fill:none;stroke:black;stroke-width:1.09379137px;stroke-linecap:butt;stroke-linejoin:miter;stroke-opacity:1;display:inline" />
    <path d="M 60.302598,97.28229 60.838308,115.40729 61.462428,119.78229 61.194568,132.46086 59.618678,133.26443 59.440108,138.3526 61.283858,138.3526 61.373158,144.06744 55.392128,143.97814 55.213558,138.2633 56.344138,137.45973 56.344138,132.63942 55.302568,128.53228 55.659718,121.56799 52.802848,121.38942 C 52.737548,125.64925 51.306358,129.74773 52.192938,133.41799 L 53.696268,135.41035 C 53.466178,137.87194 54.637758,140.36299 51.910828,140.67318 51.209178,140.67246 46.734768,140.76328 46.734768,140.76328 46.419148,136.87486 47.817788,135.35244 47.624558,133.32662 L 47.356688,130.85396 46.552018,130.13967 46.462718,115.94296 47.623428,112.99654 47.087718,97.28225 z" id="path3351-3-1" style="fill:none;stroke:black;display:inline" />
    <path d="M 22.989168,97.126138 25.229228,97.012248 27.63203,102.84042 28.25703,110.72314 C 30.08237,111.44984 29.749742,112.71603 29.688192,113.91445 29.736792,116.30335 29.439538,116.60005 28.547858,117.10835 L 25.154996,117.10835 22.989168,97.126138 z" id="path4315" style="fill:none;stroke:black;display:inline" />
    <ellipse cx="186.99936" cy="334.38907" rx="9.0505857" ry="11.119338" transform="translate(-98.190363,-246.99663)" id="path3347-0-9-3" style="fill:none;stroke:black;stroke-width:1.12558675px;stroke-linecap:butt;stroke-linejoin:miter;stroke-opacity:1;display:inline" />
    <path d="M 96.36126,97.289037 96.36126,118.33536 96.449701,120.76968 96.449701,133.66256 94.872986,134.47401 94.694322,139.61199 96.539043,139.61199 96.539043,145.38279 90.465552,145.38279 90.465552,139.61199 91.418066,139.43168 91.239402,132.22 89.92928,129.78569 90.197286,122.48272 87.338914,122.3024 87.695961,127.66164 85.909873,127.66164 86.961434,130.34091 87.786435,131.35591 C 87.556229,133.8416 88.906505,137.1736 86.17814,137.48683 85.476124,137.48609 82.787742,137.32266 82.787742,137.32266 80.772831,133.22607 81.277442,131.22446 83.051531,129.85919 L 82.336285,127.6616 81.620517,127.6616 82.369271,97.509053 C 88.907701,97.69332 92.153304,97.30624 96.36126,97.289037 z" id="path4495" style="fill:none;stroke:black;stroke-width:1.0051471" />
    <ellipse cx="225.47156" cy="334.40689" rx="9.0278044" ry="10.149538" transform="translate(-101.40433,-247.96147)" id="path3347-0-9-5-4" style="fill:none;stroke:black;stroke-width:1.17115009px;stroke-linecap:butt;stroke-linejoin:miter;stroke-opacity:1;display:inline" />
    <path d="M 130.2917,95.793447 130.2917,117.50716 130.38006,120.01867 130.38006,133.3204 128.80494,134.15757 128.62645,139.45849 130.46931,139.45849 130.46931,145.41228 124.40198,145.41228 124.40198,139.45849 125.35353,139.27245 125.17505,131.83209 123.86626,129.32059 124.13399,121.78604 121.27852,121.59999 121.6352,127.12918 119.85093,127.12918 120.90143,129.89342 121.72559,130.9406 C 121.46254,133.432 121.66685,134.34024 120.11893,137.26593 119.41763,137.26518 116.73197,137.09656 116.73197,137.09656 114.71911,132.87007 115.2232,130.80498 116.9955,129.39642 L 116.28097,127.12915 115.56594,127.12915 115.75262,118.61273 116.43043,116.17192 117.08334,114.90259 117.08334,95.793408 C 123.61512,95.983518 126.08802,95.811196 130.2917,95.793447 z" id="path4511" style="fill:none;stroke:black;stroke-width:1.02044094" />
    <ellipse cx="-264.47162" cy="335.70828" rx="9.0602474" ry="10.488819" transform="matrix(-1,0,0,1,-106.50793,-248.96226)" id="path3347-0-90-3" style="fill:none;stroke:black;stroke-width:1.09379137px;stroke-linecap:butt;stroke-linejoin:miter;stroke-opacity:1;display:inline" />
    <path d="M 150.65633,96.96743 150.65633,116.96743 150.56793,119.37814 150.56793,132.146 152.14382,132.94957 152.32239,138.03774 150.47864,138.03774 150.47864,143.75258 156.54895,143.75258 156.54895,138.03774 155.59694,137.85917 155.77551,130.71743 157.08494,128.30672 156.81708,121.07457 159.67395,120.896 159.04895,129.82485 160.8341,129.82485 160.49814,132.47814 159.49481,133.39907 C 159.7249,135.86066 157.83904,139.24457 160.56597,139.55476 161.26762,139.55404 165.56346,139.64486 165.56346,139.64486 165.87908,135.75644 164.03401,135.03759 164.22724,133.01177 L 164.40582,129.82482 165.12121,129.82482 165.12121,114.4674 165.87121,114.4674 163.87121,96.9674 150.65633,96.96743 z" id="path4541" style="fill:none;stroke:black" />
    <ellipse cx="-302.95703" cy="334.30133" rx="9.0505857" ry="11.119338" transform="matrix(-1,0,0,1,-109.53275,-246.90889)" id="path3347-0-9-8-9" style="fill:none;stroke:black;stroke-width:1.12558675px;stroke-linecap:butt;stroke-linejoin:miter;stroke-opacity:1;display:inline" />
    <path d="M 185.8837,97.30099 185.8837,119.39612 185.7954,121.95175 185.7954,135.48713 187.36961,136.33901 187.54799,141.73304 185.7062,141.73304 185.7062,147.79142 191.77004,147.79142 191.77004,141.73304 190.81904,141.54374 190.99742,133.97268 192.30546,131.41706 192.03788,123.75016 194.89171,123.56085 194.53523,129.18716 196.31848,129.18716 195.26859,131.99995 194.4449,133.06553 C 194.67474,135.67509 193.32661,139.17313 196.05064,139.50197 196.75154,139.5012 199.43565,139.32962 199.43565,139.32962 201.44736,135.02889 200.94355,132.92753 199.17228,131.49422 L 199.88639,129.18712 200.60102,129.18712 200.68092,118.98132 199.0845,97.30095 C 192.55646,97.4944 190.08498,97.31905 185.88371,97.30099 L 185.8837,97.30099 z" id="path4567" style="fill:none;stroke:black;stroke-width:1.02906895" />
    <ellipse cx="-341.77658" cy="334.51569" rx="9.0278044" ry="10.149538" transform="matrix(-1,0,0,1,-113.5199,-248.07027)" id="path3347-0-9-5-2-3" style="fill:none;stroke:black;stroke-width:1.17115009px;stroke-linecap:butt;stroke-linejoin:miter;stroke-opacity:1;display:inline" />
    <path d="M 222.54848,96.43526 219.71644,96.42096 216.21585,101.40012 216.92794,110.14379 C 216.92794,110.14379 216.82904,114.07085 216.89054,115.34131 218.08676,118.55577 220.15426,117.96554 221.04499,118.5044 L 221.07157,114.09031 220.70285,110.96675 220.72105,107.51749 222.54848,96.43526 z" id="rect3378-4-8-9-5-3" style="fill:none;stroke:black;stroke-width:1.02906895;display:inline" />
    <path d="M 234.97346,96.50481 237.23281,97.26981 239.61137,102.56259 240.68166,111.27068 C 240.44592,114.04699 242.43137,115.92153 241.00197,117.02607 239.34213,117.8577 237.26103,119.13598 235.3654,117.96581 z" id="rect3378-3-8-7-2-2-3" style="fill:none;stroke:black;stroke-width:1.02906895;display:inline" />
    <path d="M 221.08567,95.657477 221.08567,117.75261 220.99737,120.30824 220.99737,133.84362 222.57158,134.6955 222.74996,140.08953 220.90817,140.08953 220.90817,146.14791 226.97201,146.14791 226.97201,140.08953 226.02101,139.90023 226.19939,132.32917 227.50743,129.77355 227.23985,122.10665 230.09368,121.91734 229.7372,127.54365 231.52045,127.54365 230.93737,130.82325 229.56907,131.96663 C 229.83197,134.50179 229.16096,135.11478 230.319,138.40307 231.0199,138.4023 235.18223,138.23072 235.18223,138.23072 236.50351,135.40602 236.42844,132.44087 235.93304,131.07983 235.67417,130.36863 234.90436,130.88723 234.29645,130.39532 L 235.08836,127.54361 235.80299,127.54361 235.53513,115.10229 234.28646,115.10229 234.28646,95.657437 C 227.75842,95.850887 225.28694,95.675537 221.08567,95.657477 z" id="path3351-3-2-4-3-1" style="fill:none;stroke:black;stroke-width:1.02906895;display:inline" />
    <path d="M 47.218745,96.84375 43.187495,102.3125 42.843745,111.34375 C 41.018405,112.07045 41.438445,113.98908 41.499995,115.1875 41.455794,119.14665 45.153603,119.70732 46.499995,120.15625 L 46.468745,115.9375 47.624995,113 47.093745,97.28125 49.406245,97.28125 49.437495,96.96875 47.218745,96.84375 z" id="path5172" style="fill:none;stroke:black;stroke-width:0.99999994" />
    <path d="M 60.759037,97.03251 63.003624,96.91862 65.174772,102.74679 65.919724,110.96109 67.815862,113.8777 67.274908,117.30036 C 65.582119,118.08484 63.857286,118.49351 62.003509,117.38966 z" id="path5174" style="fill:none;stroke:black;stroke-width:1" />
    <path d="M 80.249995,97.34375 76.249995,103.15625 76.781245,112.28125 C 76.781245,112.28125 77.876015,114.16704 77.937495,115.4375 77.903554,118.66044 80.164157,119.09625 81.843745,119.25 L 82.374995,98.125 80.249995,97.34375 z" id="path5176" style="fill:none;stroke:black;stroke-width:1.02906895" />
    <path d="M 96.995813,98.26285 98.876353,97.07068 101.63371,104.32063 102.704,113.02872 C 102.46826,115.80503 103.50669,116.85882 102.07729,117.96336 100.41745,118.79499 99.157113,120.38894 97.261483,119.21877 z" id="path5178" style="fill:none;stroke:black;stroke-width:1.02906895" />
    <path d="M 117.41172,95.13017 114.57968,95.11587 111.07909,100.09503 110.85757,109.46111 C 110.85757,109.46111 110.75867,113.38817 110.82017,114.65863 110.77157,119.2735 115.0175,116.66045 115.90823,117.19931 L 116.86842,112.94082 115.56609,109.66166 115.58429,106.2124 z" id="path5180" style="fill:none;stroke:black;stroke-width:1.02906895" />
    <path d="M 129.82549,95.188508 131.98523,95.95429 134.25892,101.25248 135.28203,109.96948 C 135.05668,112.74862 136.9546,114.62508 135.58822,115.73075 134.00155,116.56323 132.01221,117.84282 130.20015,116.67145 z" id="path5182" style="fill:none;stroke:black;stroke-width:1.00664401" />
    <path d="M 162.68475,96.948523 164.93175,96.840566 168.95411,102.02658 169.31237,110.57467 C 171.14336,111.26351 170.71754,113.07795 170.6558,114.21394 170.70455,118.34036 166.1765,118.55627 165.28206,119.03809 L 165.01337,116.92223 C 163.89317,116.2099 164.70535,114.28019 164.55134,112.95917 z" id="path5184" style="fill:none;stroke:black;stroke-width:0.97511142" />
    <path d="M 149.70555,97.0325 147.45268,96.91861 145.70507,102.74678 145.55707,110.96108 143.87288,113.87769 144.66256,117.30035 C 146.41236,118.08483 148.16689,118.4935 149.94045,117.38965 z" id="path5186" style="fill:none;stroke:black" />
    <path d="M 202,97.34375 199.65625,98.1875 199.84375,107.65625 200.6875,118.96875 200.6875,119.21875 C 202.32216,119.03279 204.3131,118.4616 204.28125,115.4375 204.34273,114.16704 205.46875,112.28125 205.46875,112.28125 L 206,103.15625 202,97.34375 z" id="path5188" style="fill:none;stroke:black;stroke-width:1.02906895" />
    <path d="M 185.23747,98.26284 183.35693,97.07067 180.59957,104.32062 179.52928,113.02871 C 179.76502,115.80502 178.72659,116.85881 180.15599,117.96335 181.81583,118.79498 183.07617,120.38893 184.9718,119.21876 z" id="path5190" style="fill:none;stroke:black;stroke-width:1.02906895" />
    <ellipse cx="110.89286" cy="259.86221" rx="9.0602474" ry="10.488819" transform="translate(-92.935195,-94.51208)" id="path3347-4" style="fill:none;stroke:black;stroke-width:1.09379137px;stroke-linecap:butt;stroke-linejoin:miter;stroke-opacity:1" />
    <path d="M 10.814805,175.88636 10.814805,195.88636 10.279935,198.7435 10.458505,210.88636 11.766535,211.8685 11.855835,216.86738 10.637085,216.95668 10.637085,222.67152 16.707395,222.67152 16.707395,216.95668 14.683955,216.95668 14.594655,211.51137 15.814805,209.63637 16.261235,199.4578 18.760955,199.5471 19.207385,208.7438 20.278245,208.8331 20.367545,215.53232 C 19.806845,215.95299 19.476315,216.61261 19.474975,217.31357 19.474825,218.54656 19.402175,219.72387 20.635125,219.72372 21.336775,219.723 24.293335,219.4567 24.293335,219.4567 L 27.957395,219.4567 27.834345,216.8649 C 27.990895,215.20133 26.933435,215.7067 25.547235,215.7067 L 23.967155,215.7067 C 23.929555,215.6669 23.890455,215.6284 23.849975,215.59147 L 23.849975,208.74381 25.279655,208.74381 25.279655,193.38639 24.029655,193.38639 24.029655,175.88639 z" id="path3351-0" style="fill:none;stroke:black" />
    <path d="M 23.671945,175.88583 25.912005,175.77194 28.314805,181.60011 28.939805,190.26084 C 30.765145,190.98754 31.054925,192.09813 30.993375,193.29655 31.041975,195.68545 30.277915,196.44895 29.386235,196.95725 L 25.297885,194.67206 z" id="rect3378-9" style="fill:none;stroke:black" />
    <path d="M 11.233695,175.95143 8.9936354,175.83754 6.5908404,181.66571 5.5194104,189.88001 5.5194104,197.02285 C 7.1810254,197.80733 8.8896154,198.216 10.787265,197.11215 z" id="rect3378-3-4" style="fill:none;stroke:black" />
    <ellipse cx="113.89471" cy="265.32709" rx="1.0663524" ry="2.202774" transform="translate(-92.935195,-94.51208)" id="path3654-88" style="fill:none;stroke:black;stroke-width:0.88760048" />
    <ellipse cx="107.07617" cy="265.32709" rx="1.0663524" ry="2.202774" transform="translate(-92.935195,-94.51208)" id="path3654-3-2" style="fill:none;stroke:black;stroke-width:0.88760048;display:inline" />
    <ellipse cx="148.94762" cy="259.99072" rx="9.0602474" ry="10.488819" transform="translate(-95.282241,-94.64059)" id="path3347-0-4" style="fill:none;stroke:black;stroke-width:1.09379137px;stroke-linecap:butt;stroke-linejoin:miter;stroke-opacity:1" />
    <path d="M 46.522519,175.88638 46.522519,195.88638 46.434119,198.29709 46.434119,211.06495 48.010009,211.86852 48.188579,216.95669 46.344829,216.95669 46.344829,222.67153 52.415139,222.67153 52.415139,216.95669 51.463129,216.77812 51.641699,209.63638 52.951129,207.22567 52.683269,199.99352 55.540139,199.81495 54.915139,208.7438 56.700289,208.7438 56.364329,211.39709 55.360999,212.31802 C 55.591089,214.77961 53.705229,218.16352 56.432159,218.47371 57.133809,218.47299 61.429649,218.56381 61.429649,218.56381 61.745269,214.67539 59.900199,213.95654 60.093429,211.93072 L 60.272009,208.74377 60.987399,208.74377 60.987399,193.38635 59.737399,193.38635 59.737399,175.88635 z" id="path3351-3-5" style="fill:none;stroke:black" />
    <path d="M 59.379659,175.88585 61.619719,175.77196 65.629659,181.24299 65.986809,190.26086 C 67.812149,190.98756 67.387639,192.90172 67.326089,194.10014 67.374689,198.45333 62.860629,198.68111 61.968949,199.18941 L 61.701089,196.95727 z" id="rect3378-4-5" style="fill:none;stroke:black" />
    <path d="M 46.941409,175.95145 44.701349,175.83756 42.298559,181.66573 41.227129,189.88003 39.215069,192.79664 39.619989,196.2193 C 41.281599,197.00378 42.990189,197.41245 44.887839,196.3086 z" id="rect3378-3-8-1" style="fill:none;stroke:black" />
    <ellipse cx="152.6593" cy="264.56949" rx="1.0663524" ry="2.202774" transform="translate(-95.282241,-94.64059)" id="path3654-9-7" style="fill:none;stroke:black;stroke-width:0.88760048;display:inline" />
    <ellipse cx="145.84077" cy="264.56949" rx="1.0663524" ry="2.202774" transform="translate(-95.282241,-94.64059)" id="path3654-3-0-1" style="fill:none;stroke:black;stroke-width:0.88760048;display:inline" />
    <ellipse cx="188.21674" cy="258.54526" rx="9.0505857" ry="11.119338" transform="translate(-99.605659,-94.60209)" id="path3347-0-9-1" style="fill:none;stroke:black;stroke-width:1.12558675px;stroke-linecap:butt;stroke-linejoin:miter;stroke-opacity:1" />
    <path d="M 81.475831,174.21994 81.475831,196.31507 81.387531,198.8707 81.387531,212.40608 82.961741,213.25796 83.140121,218.65199 81.298331,218.65199 81.298331,224.71037 87.362171,224.71037 87.362171,218.65199 86.411171,218.46269 86.589551,210.89163 87.897591,208.33601 87.630011,200.66911 90.483841,200.4798 90.127361,206.10611 91.910611,206.10611 90.860721,208.9189 90.037031,209.98448 C 90.266871,212.59404 88.918741,216.09208 91.642771,216.42092 92.343671,216.42015 95.027781,216.24857 95.027781,216.24857 97.039491,211.94784 96.535681,209.84648 94.764411,208.41317 L 95.478521,206.10607 96.193151,206.10607 95.977271,196.0792 93.342031,196.54608 91.894641,192.96926 94.179841,188.7268 94.676621,174.2199 C 88.148581,174.41335 85.677101,174.238 81.475831,174.21994 z" id="path3351-3-2-52" style="fill:none;stroke:black;stroke-width:1.02906895" />
    <path d="M 94.319261,175.11224 96.646221,174.27722 100.65189,180.07713 100.1158,189.19067 C 100.1158,189.19067 99.015131,191.09743 98.953651,192.36789 99.002251,196.98276 94.314381,195.88494 93.423651,196.4238 L 92.084651,192.98605 94.586541,188.50734 z" id="rect3378-4-8-7" style="fill:none;stroke:black;stroke-width:1.02906895" />
    <path d="M 81.894281,175.18179 80.013741,173.98962 77.256381,181.23957 76.186091,189.94766 C 76.421831,192.72397 75.383401,193.77776 76.812801,194.8823 78.472641,195.71393 79.732981,197.30788 81.628611,196.13771 z" id="rect3378-3-8-7-6" style="fill:none;stroke:black;stroke-width:1.02906895" />
    <ellipse cx="191.29764" cy="263.43307" rx="1.0663524" ry="2.202774" transform="translate(-99.605659,-94.60209)" id="path3654-7-1" style="fill:none;stroke:black;stroke-width:0.88760048;display:inline" />
    <ellipse cx="184.47911" cy="263.43307" rx="1.0663524" ry="2.202774" transform="translate(-99.605659,-94.60209)" id="path3654-3-8-4" style="fill:none;stroke:black;stroke-width:0.88760048;display:inline" />
    <ellipse cx="226.68892" cy="258.56308" rx="9.0278044" ry="10.149538" transform="translate(-102.81963,-94.50379)" id="path3347-0-9-5-23" style="fill:none;stroke:black;stroke-width:1.17115009px;stroke-linecap:butt;stroke-linejoin:miter;stroke-opacity:1" />
    <path d="M 116.73406,173.15681 116.73406,195.25194 116.64576,197.80757 116.64576,211.34295 118.21997,212.19483 118.39835,217.58886 116.55656,217.58886 116.55656,223.64724 122.6204,223.64724 122.6204,217.58886 121.6694,217.39956 121.84778,209.8285 123.15582,207.27288 122.88824,199.60598 125.74207,199.41667 125.38559,205.04298 127.16884,205.04298 126.11895,207.85577 125.29526,208.92135 C 125.55816,211.45651 125.35396,212.38071 126.901,215.35779 127.6019,215.35702 130.28601,215.18544 130.28601,215.18544 132.29772,210.88471 131.79391,208.78335 130.02264,207.35004 L 130.73675,205.04294 131.45138,205.04294 131.2648,196.37693 130.58738,193.89325 129.93485,192.60162 129.93485,173.15677 C 123.40681,173.35022 120.93533,173.17487 116.73406,173.15681 z" id="path3351-3-2-4-2" style="fill:none;stroke:black;stroke-width:1.02906895" />
    <path d="M 129.57749,174.04911 132.40953,174.03481 135.91012,179.01397 136.13164,188.38005 C 136.13164,188.38005 136.23054,192.30711 136.16904,193.57757 136.21764,198.19244 131.97171,195.57939 131.08098,196.11825 L 130.12079,191.85976 131.42312,188.5806 131.40492,185.13134 z" id="rect3378-4-8-9-2" style="fill:none;stroke:black;stroke-width:1.02906895" />
    <path d="M 117.15251,174.11866 114.89316,174.88366 112.51461,180.17644 111.44432,188.88453 C 111.68006,191.66084 109.69461,193.53538 111.12401,194.63992 112.78385,195.47155 114.86494,196.74983 116.76057,195.57966 z" id="rect3378-3-8-7-2-1" style="fill:none;stroke:black;stroke-width:1.02906895" />
    <ellipse cx="230.44106" cy="262.80173" rx="1.0663524" ry="2.202774" transform="translate(-102.81963,-94.50379)" id="path3654-95-6" style="fill:none;stroke:black;stroke-width:0.88760048;display:inline" />
    <ellipse cx="223.62251" cy="262.80173" rx="1.0663524" ry="2.202774" transform="translate(-102.81963,-94.50379)" id="path3654-3-80-8" style="fill:none;stroke:black;stroke-width:0.88760048;display:inline" />
    <ellipse cx="-265.68896" cy="259.86447" rx="9.0602474" ry="10.488819" transform="matrix(-1,0,0,1,-107.60755,-94.51434)" id="path3347-0-90-5" style="fill:none;stroke:black;stroke-width:1.09379137px;stroke-linecap:butt;stroke-linejoin:miter;stroke-opacity:1" />
    <path d="M 165.22425,175.88637 165.22425,195.88637 165.31265,198.29708 165.31265,211.06494 163.73676,211.86851 163.55819,216.95668 165.40194,216.95668 165.40194,222.67152 159.33163,222.67152 159.33163,216.95668 160.28364,216.77811 160.10507,209.63637 158.79564,207.22566 159.0635,199.99351 156.20663,199.81494 156.83163,208.74379 155.04648,208.74379 155.38244,211.39708 156.38577,212.31801 C 156.15568,214.7796 158.04154,218.16351 155.31461,218.4737 154.61296,218.47298 150.31712,218.5638 150.31712,218.5638 150.0015,214.67538 151.84657,213.95653 151.65334,211.93071 L 151.47476,208.74376 150.75937,208.74376 150.75937,193.38634 152.00937,193.38634 152.00937,175.88634 z" id="path3351-3-9-7" style="fill:none;stroke:black" />
    <path d="M 152.36711,175.88584 150.12705,175.77195 146.11711,181.24298 145.75996,190.26085 C 143.93462,190.98755 144.35913,192.90171 144.42068,194.10013 144.37208,198.45332 148.88614,198.6811 149.77782,199.1894 L 150.04568,196.95726 C 151.16242,196.20578 150.35275,194.17002 150.50628,192.7764 z" id="rect3378-4-0-6" style="fill:none;stroke:black" />
    <path d="M 164.80536,175.95144 167.04542,175.83755 169.44821,181.66572 170.51964,189.88002 172.5317,192.79663 172.12678,196.21929 C 170.46517,197.00377 168.75658,197.41244 166.85893,196.30859 z" id="rect3378-3-8-3-1" style="fill:none;stroke:black" />
    <ellipse cx="269.33194" cy="264.06442" rx="1.0663524" ry="2.202774" transform="translate(-107.60755,-94.51434)" id="path3654-6-8" style="fill:none;stroke:black;stroke-width:0.88760048;display:inline" />
    <ellipse cx="262.5134" cy="264.06442" rx="1.0663524" ry="2.202774" transform="translate(-107.60755,-94.51434)" id="path3654-3-6-9" style="fill:none;stroke:black;stroke-width:0.88760048;display:inline" />
    <ellipse cx="-304.17438" cy="258.45752" rx="9.0505857" ry="11.119338" transform="matrix(-1,0,0,1,-110.94805,-94.51435)" id="path3347-0-9-8-2" style="fill:none;stroke:black;stroke-width:1.12558675px;stroke-linecap:butt;stroke-linejoin:miter;stroke-opacity:1" />
    <path d="M 200.36157,174.21993 200.36157,196.31506 200.44987,198.87069 200.44987,212.40607 198.87566,213.25795 198.69728,218.65198 200.53907,218.65198 200.53907,224.71036 194.47523,224.71036 194.47523,218.65198 195.42623,218.46268 195.24785,210.89162 193.93981,208.336 194.20739,200.6691 191.35356,200.47979 191.71004,206.1061 189.92679,206.1061 190.97668,208.91889 191.80037,209.98447 C 191.57053,212.59403 192.91866,216.09207 190.19463,216.42091 189.49373,216.42014 186.80962,216.24856 186.80962,216.24856 184.79791,211.94783 185.30172,209.84647 187.07299,208.41316 L 186.35888,206.10606 185.64425,206.10606 185.56435,195.90026 188.40019,196.45488 189.54532,192.67118 187.16077,189.17391 187.16077,174.21989 C 193.68881,174.41334 196.16029,174.23799 200.36156,174.21993 z" id="path3351-3-2-5-7" style="fill:none;stroke:black;stroke-width:1.02906895" />
    <path d="M 187.51814,175.11223 185.19118,174.27721 181.18551,180.07712 181.7216,189.19066 C 181.7216,189.19066 182.82227,191.09742 182.88375,192.36788 182.83515,196.98275 187.52302,195.88493 188.41375,196.42379 L 189.75275,192.98604 187.25086,188.50733 z" id="rect3378-4-8-2-9" style="fill:none;stroke:black;stroke-width:1.02906895" />
    <path d="M 199.94312,175.18178 201.82366,173.98961 204.58102,181.23956 205.65131,189.94765 C 205.41557,192.72396 206.454,193.77775 205.0246,194.88229 203.36476,195.71392 202.10442,197.30787 200.20879,196.1377 z" id="rect3378-3-8-7-0-5" style="fill:none;stroke:black;stroke-width:1.02906895" />
    <ellipse cx="307.87357" cy="263.25507" rx="1.0663524" ry="2.202774" transform="translate(-110.94805,-94.51435)" id="path3654-31-4" style="fill:none;stroke:black;stroke-width:0.88760048;display:inline" />
    <ellipse cx="301.05502" cy="263.25507" rx="1.0663524" ry="2.202774" transform="translate(-110.94805,-94.51435)" id="path3654-3-7-3" style="fill:none;stroke:black;stroke-width:0.88760048;display:inline" />
    <ellipse cx="-342.99393" cy="258.67188" rx="9.0278044" ry="10.149538" transform="matrix(-1,0,0,1,-114.93519,-94.61259)" id="path3347-0-9-5-2-1" style="fill:none;stroke:black;stroke-width:1.17115009px;stroke-linecap:butt;stroke-linejoin:miter;stroke-opacity:1" />
    <path d="M 235.19398,173.15681 235.19398,195.25194 235.28228,197.80757 235.28228,211.34295 233.70807,212.19483 233.52969,217.58886 235.37148,217.58886 235.37148,223.64724 229.30764,223.64724 229.30764,217.58886 230.25864,217.39956 230.08026,209.8285 228.77222,207.27288 229.0398,199.60598 226.18597,199.41667 226.54245,205.04298 224.7592,205.04298 225.80909,207.85577 226.63278,208.92135 C 226.36988,211.45651 226.57408,212.38071 225.02704,215.35779 224.32614,215.35702 221.64203,215.18544 221.64203,215.18544 219.63032,210.88471 220.13413,208.78335 221.9054,207.35004 L 221.19129,205.04294 220.47666,205.04294 220.74452,192.60162 221.99319,192.60162 221.99319,173.15677 C 228.52123,173.35022 230.99271,173.17487 235.19398,173.15681 z" id="path3351-3-2-4-3-2" style="fill:none;stroke:black;stroke-width:1.02906895" />
    <path d="M 222.35055,174.04911 219.51851,174.03481 216.01792,179.01397 215.7964,188.38005 C 215.7964,188.38005 215.6975,192.30711 215.759,193.57757 215.7104,198.19244 219.95633,195.57939 220.84706,196.11825 L 221.80725,191.85976 220.50492,188.5806 220.52312,185.13134 z" id="rect3378-4-8-9-5-33" style="fill:none;stroke:black;stroke-width:1.02906895" />
    <path d="M 234.77553,174.11866 237.03488,174.88366 239.41343,180.17644 240.48372,188.88453 C 240.24798,191.66084 242.23343,193.53538 240.80403,194.63992 239.14419,195.47155 237.0631,196.74983 235.16747,195.57966 z" id="rect3378-3-8-7-2-2-4" style="fill:none;stroke:black;stroke-width:1.02906895" />
    <ellipse cx="346.62357" cy="263.43362" rx="1.0663524" ry="2.202774" transform="translate(-114.93519,-94.61259)" id="path3654-8-1" style="fill:none;stroke:black;stroke-width:0.88760048;display:inline" />
    <ellipse cx="339.80502" cy="263.43362" rx="1.0663524" ry="2.202774" transform="translate(-114.93519,-94.61259)" id="path3654-3-1-1" style="fill:none;stroke:black;stroke-width:0.88760048;display:inline" />
    <ellipse cx="109.67551" cy="335.70602" rx="9.0602474" ry="10.488819" transform="translate(-91.717792,-96.04106)" id="path3347-03-3" style="fill:none;stroke:black;stroke-width:1.09379137px;stroke-linecap:butt;stroke-linejoin:miter;stroke-opacity:1;display:inline" />
    <path d="M 23.741128,249.93335 24.455418,267.7905 25.347428,271.98692 25.168858,282.96907 23.860828,283.95121 23.771528,288.95009 24.990278,289.03939 24.990278,294.75423 18.919968,294.75423 18.919968,289.03939 20.943408,289.03939 21.032708,283.59408 19.812558,281.71908 19.366128,274.57622 16.241408,274.66552 16.241408,282.91579 15.527688,286.93366 15.438388,293.63288 C 15.999088,294.05355 16.329618,294.71317 16.330958,295.41413 16.331108,296.64712 16.403758,297.82443 15.170808,297.82428 14.469158,297.82356 11.512598,297.55726 11.512598,297.55726 L 7.8485424,297.55726 7.9715924,294.96546 C 7.8150424,293.30189 8.8724984,293.80726 10.258698,293.80726 L 11.838778,293.80726 C 11.876378,293.76746 11.915478,293.72896 11.955958,293.69203 L 11.955958,286.84437 10.526278,286.84437 11.240568,267.70124 12.133428,266.00481 12.490568,250.20124 z" id="path3351-4-8" style="fill:none;stroke:black;display:inline" />
    <path d="M 12.848278,250.20068 10.608218,250.08679 8.2054154,255.91496 7.5804154,264.57569 C 5.7550754,265.30239 5.4652954,266.41298 5.5268454,267.6114 5.4782454,270.0003 6.2423054,270.7638 7.1339854,271.2721 L 10.526848,271.2721 z" id="rect3378-0-7" style="fill:none;stroke:black;display:inline" />
    <ellipse cx="147.73026" cy="335.83453" rx="9.0602474" ry="10.488819" transform="translate(-94.048503,-96.16957)" id="path3347-0-7-4" style="fill:none;stroke:black;stroke-width:1.09379137px;stroke-linecap:butt;stroke-linejoin:miter;stroke-opacity:1;display:inline" />
    <path d="M 60.104657,250.20123 60.640367,268.32623 61.264487,272.70123 60.996627,285.3798 59.420737,286.18337 59.242167,291.27154 61.085917,291.27154 61.175217,296.98638 55.194187,296.89708 55.015617,291.18224 56.146197,290.37867 56.146197,285.55836 55.104627,281.45122 55.461777,274.48693 52.604907,274.30836 C 52.539607,278.56819 51.108417,282.66667 51.994997,286.33693 L 53.498327,288.32929 C 53.268237,290.79088 54.439817,293.28193 51.712887,293.59212 51.011237,293.5914 46.536827,293.68222 46.536827,293.68222 46.221207,289.7938 47.619847,288.27138 47.426617,286.24556 L 47.158747,283.7729 46.354077,283.05861 46.264777,268.8619 47.425487,265.91548 46.889777,250.20119 z" id="path3351-3-1-2" style="fill:none;stroke:black;display:inline" />
    <path d="M 22.791227,250.04508 25.031287,249.93119 27.434089,255.75936 28.059089,263.64208 C 29.884429,264.36878 29.551801,265.63497 29.490251,266.83339 29.538851,269.22229 29.241597,269.51899 28.349917,270.02729 L 24.957055,270.02729 22.791227,250.04508 z" id="path4315-7" style="fill:none;stroke:black;display:inline" />
    <ellipse cx="186.99936" cy="334.38907" rx="9.0505857" ry="11.119338" transform="translate(-98.388304,-94.07769)" id="path3347-0-9-3-7" style="fill:none;stroke:black;stroke-width:1.12558675px;stroke-linecap:butt;stroke-linejoin:miter;stroke-opacity:1;display:inline" />
    <path d="M 96.163319,250.20798 96.163319,271.2543 96.25176,273.68862 96.25176,286.5815 94.675045,287.39295 94.496381,292.53093 96.341102,292.53093 96.341102,298.30173 90.267611,298.30173 90.267611,292.53093 91.220125,292.35062 91.041461,285.13894 89.731339,282.70463 89.999345,275.40166 87.140973,275.22134 87.49802,280.58058 85.711932,280.58058 86.763493,283.25985 87.588494,284.27485 C 87.358288,286.76054 88.708564,290.09254 85.980199,290.40577 85.278183,290.40503 82.589801,290.2416 82.589801,290.2416 80.57489,286.14501 81.079501,284.1434 82.85359,282.77813 L 82.138344,280.58054 81.422576,280.58054 82.17133,250.42799 C 88.70976,250.61226 91.955363,250.22518 96.163319,250.20798 z" id="path4495-9" style="fill:none;stroke:black;stroke-width:1.0051471" />
    <ellipse cx="225.47156" cy="334.40689" rx="9.0278044" ry="10.149538" transform="translate(-101.60227,-95.04253)" id="path3347-0-9-5-4-3" style="fill:none;stroke:black;stroke-width:1.17115009px;stroke-linecap:butt;stroke-linejoin:miter;stroke-opacity:1;display:inline" />
    <path d="M 130.09376,248.71239 130.09376,270.4261 130.18212,272.93761 130.18212,286.23934 128.607,287.07651 128.42851,292.37743 130.27137,292.37743 130.27137,298.33122 124.20404,298.33122 124.20404,292.37743 125.15559,292.19139 124.97711,284.75103 123.66832,282.23953 123.93605,274.70498 121.08058,274.51893 121.43726,280.04812 119.65299,280.04812 120.70349,282.81236 121.52765,283.85954 C 121.2646,286.35094 121.46891,287.25918 119.92099,290.18487 119.21969,290.18412 116.53403,290.0155 116.53403,290.0155 114.52117,285.78901 115.02526,283.72392 116.79756,282.31536 L 116.08303,280.04809 115.368,280.04809 115.55468,271.53167 116.23249,269.09086 116.8854,267.82153 116.8854,248.71235 C 123.41718,248.90246 125.89008,248.73014 130.09376,248.71239 z" id="path4511-1" style="fill:none;stroke:black;stroke-width:1.02044094" />
    <ellipse cx="-264.47162" cy="335.70828" rx="9.0602474" ry="10.488819" transform="matrix(-1,0,0,1,-106.70587,-96.04332)" id="path3347-0-90-3-9" style="fill:none;stroke:black;stroke-width:1.09379137px;stroke-linecap:butt;stroke-linejoin:miter;stroke-opacity:1;display:inline" />
    <path d="M 150.45839,249.88637 150.45839,269.88637 150.36999,272.29708 150.36999,285.06494 151.94588,285.86851 152.12445,290.95668 150.2807,290.95668 150.2807,296.67152 156.35101,296.67152 156.35101,290.95668 155.399,290.77811 155.57757,283.63637 156.887,281.22566 156.61914,273.99351 159.47601,273.81494 158.85101,282.74379 160.63616,282.74379 160.3002,285.39708 159.29687,286.31801 C 159.52696,288.7796 157.6411,292.16351 160.36803,292.4737 161.06968,292.47298 165.36552,292.5638 165.36552,292.5638 165.68114,288.67538 163.83607,287.95653 164.0293,285.93071 L 164.20788,282.74376 164.92327,282.74376 164.92327,267.38634 165.67327,267.38634 163.67327,249.88634 150.45839,249.88637 z" id="path4541-8" style="fill:none;stroke:black" />
    <ellipse cx="-302.95703" cy="334.30133" rx="9.0505857" ry="11.119338" transform="matrix(-1,0,0,1,-109.73069,-93.98995)" id="path3347-0-9-8-9-6" style="fill:none;stroke:black;stroke-width:1.12558675px;stroke-linecap:butt;stroke-linejoin:miter;stroke-opacity:1;display:inline" />
    <path d="M 185.68576,250.21993 185.68576,272.31506 185.59746,274.87069 185.59746,288.40607 187.17167,289.25795 187.35005,294.65198 185.50826,294.65198 185.50826,300.71036 191.5721,300.71036 191.5721,294.65198 190.6211,294.46268 190.79948,286.89162 192.10752,284.336 191.83994,276.6691 194.69377,276.47979 194.33729,282.1061 196.12054,282.1061 195.07065,284.91889 194.24696,285.98447 C 194.4768,288.59403 193.12867,292.09207 195.8527,292.42091 196.5536,292.42014 199.23771,292.24856 199.23771,292.24856 201.24942,287.94783 200.74561,285.84647 198.97434,284.41316 L 199.68845,282.10606 200.40308,282.10606 200.48298,271.90026 198.88656,250.21989 C 192.35852,250.41334 189.88704,250.23799 185.68577,250.21993 L 185.68576,250.21993 z" id="path4567-5" style="fill:none;stroke:black;stroke-width:1.02906895" />
    <ellipse cx="-341.77658" cy="334.51569" rx="9.0278044" ry="10.149538" transform="matrix(-1,0,0,1,-113.71784,-95.15133)" id="path3347-0-9-5-2-3-0" style="fill:none;stroke:black;stroke-width:1.17115009px;stroke-linecap:butt;stroke-linejoin:miter;stroke-opacity:1;display:inline" />
    <path d="M 222.35054,249.3542 219.5185,249.3399 216.01791,254.31906 216.73,263.06273 C 216.73,263.06273 216.6311,266.98979 216.6926,268.26025 217.88882,271.47471 219.95632,270.88448 220.84705,271.42334 L 220.87363,267.00925 220.50491,263.88569 220.52311,260.43643 222.35054,249.3542 z" id="rect3378-4-8-9-5-3-2" style="fill:none;stroke:black;stroke-width:1.02906895;display:inline" />
    <path d="M 234.77552,249.42375 237.03487,250.18875 239.41343,255.48153 240.48372,264.18962 C 240.24798,266.96593 242.23343,268.84047 240.80403,269.94501 239.14419,270.77664 237.06309,272.05492 235.16746,270.88475 z" id="rect3378-3-8-7-2-2-3-8" style="fill:none;stroke:black;stroke-width:1.02906895;display:inline" />
    <path d="M 220.88773,248.57642 220.88773,270.67155 220.79943,273.22718 220.79943,286.76256 222.37364,287.61444 222.55202,293.00847 220.71023,293.00847 220.71023,299.06685 226.77407,299.06685 226.77407,293.00847 225.82307,292.81917 226.00145,285.24811 227.30949,282.69249 227.04191,275.02559 229.89574,274.83628 229.53926,280.46259 231.32251,280.46259 230.73943,283.74219 229.37113,284.88557 C 229.63403,287.42073 228.96302,288.03372 230.12106,291.32201 230.82196,291.32124 234.98429,291.14966 234.98429,291.14966 236.30557,288.32496 236.2305,285.35981 235.7351,283.99877 235.47623,283.28757 234.70642,283.80617 234.09851,283.31426 L 234.89042,280.46255 235.60505,280.46255 235.33719,268.02123 234.08852,268.02123 234.08852,248.57638 C 227.56048,248.76983 225.089,248.59448 220.88773,248.57642 z" id="path3351-3-2-4-3-1-6" style="fill:none;stroke:black;stroke-width:1.02906895;display:inline" />
    <path d="M 47.020804,249.76269 42.989554,255.23144 42.645804,264.26269 C 40.820464,264.98939 41.240504,266.90802 41.302054,268.10644 41.257853,272.06559 44.955662,272.62626 46.302054,273.07519 L 46.270804,268.85644 47.427054,265.91894 46.895804,250.20019 49.208304,250.20019 49.239554,249.88769 47.020804,249.76269 z" id="path5172-0" style="fill:none;stroke:black;stroke-width:0.99999994" />
    <path d="M 60.561096,249.95145 62.805683,249.83756 64.976831,255.66573 65.721783,263.88003 67.617921,266.79664 67.076967,270.2193 C 65.384178,271.00378 63.659345,271.41245 61.805568,270.3086 z" id="path5174-2" style="fill:none;stroke:black;stroke-width:1" />
    <path d="M 80.052054,250.26269 76.052054,256.07519 76.583304,265.20019 C 76.583304,265.20019 77.678074,267.08598 77.739554,268.35644 77.705613,271.57938 79.966216,272.01519 81.645804,272.16894 L 82.177054,251.04394 80.052054,250.26269 z" id="path5176-4" style="fill:none;stroke:black;stroke-width:1.02906895" />
    <path d="M 96.797872,251.18179 98.678412,249.98962 101.43577,257.23957 102.50606,265.94766 C 102.27032,268.72397 103.30875,269.77776 101.87935,270.8823 100.21951,271.71393 98.959172,273.30788 97.063542,272.13771 z" id="path5178-8" style="fill:none;stroke:black;stroke-width:1.02906895" />
    <path d="M 117.21378,248.04911 114.38174,248.03481 110.88115,253.01397 110.65963,262.38005 C 110.65963,262.38005 110.56073,266.30711 110.62223,267.57757 110.57363,272.19244 114.81956,269.57939 115.71029,270.11825 L 116.67048,265.85976 115.36815,262.5806 115.38635,259.13134 z" id="path5180-6" style="fill:none;stroke:black;stroke-width:1.02906895" />
    <path d="M 129.62755,248.10745 131.78729,248.87323 134.06098,254.17142 135.08409,262.88842 C 134.85874,265.66756 136.75666,267.54402 135.39028,268.64969 133.80361,269.48217 131.81427,270.76176 130.00221,269.59039 z" id="path5182-5" style="fill:none;stroke:black;stroke-width:1.00664401" />
    <path d="M 162.48681,249.86746 164.73381,249.75951 168.75617,254.94552 169.11443,263.49361 C 170.94542,264.18245 170.5196,265.99689 170.45786,267.13288 170.50661,271.2593 165.97856,271.47521 165.08412,271.95703 L 164.81543,269.84117 C 163.69523,269.12884 164.50741,267.19913 164.3534,265.87811 z" id="path5184-0" style="fill:none;stroke:black;stroke-width:0.97511142" />
    <path d="M 149.50761,249.95144 147.25474,249.83755 145.50713,255.66572 145.35913,263.88002 143.67494,266.79663 144.46462,270.21929 C 146.21442,271.00377 147.96895,271.41244 149.74251,270.30859 z" id="path5186-9" style="fill:none;stroke:black" />
    <path d="M 201.80206,250.26269 199.45831,251.10644 199.64581,260.57519 200.48956,271.88769 200.48956,272.13769 C 202.12422,271.95173 204.11516,271.38054 204.08331,268.35644 204.14479,267.08598 205.27081,265.20019 205.27081,265.20019 L 205.80206,256.07519 201.80206,250.26269 z" id="path5188-0" style="fill:none;stroke:black;stroke-width:1.02906895" />
    <path d="M 185.03953,251.18178 183.15899,249.98961 180.40163,257.23956 179.33134,265.94765 C 179.56708,268.72396 178.52865,269.77775 179.95805,270.88229 181.61789,271.71392 182.87823,273.30787 184.77386,272.1377 z" id="path5190-0" style="fill:none;stroke:black;stroke-width:1.02906895" />
    <path d="M 14.963693,190.01883 C 16.526683,190.05434 17.87201,190.45507 19.364779,190.67899" transform="translate(-4.9164605e-6,0)" id="path5793" style="fill:none;stroke:black;stroke-width:1px;stroke-linecap:butt;stroke-linejoin:miter;stroke-opacity:1" />
    <path d="M 19.804887,186.05785 C 25.719851,191.91226 19.965541,191.75158 19.804887,193.75975" transform="translate(-4.9164605e-6,0)" id="path5795" style="fill:none;stroke:black;stroke-width:1px;stroke-linecap:butt;stroke-linejoin:miter;stroke-opacity:1" />
    <path d="M 50.392435,190.67899 C 51.12595,190.67899 51.859464,190.67899 52.592978,190.67899" transform="translate(-4.9164605e-6,0)" id="path5797" style="fill:none;stroke:black;stroke-width:1px;stroke-linecap:butt;stroke-linejoin:miter;stroke-opacity:1" />
    <path d="M 52.372924,187.81828 C 57.843824,191.50608 56.33944,191.76704 51.712761,193.9798" transform="translate(-4.9164605e-6,0)" id="path5799" style="fill:none;stroke:black;stroke-width:1px;stroke-linecap:butt;stroke-linejoin:miter;stroke-opacity:1" />
    <path d="M 83.620635,190.01883 C 84.391911,189.46703 85.186407,189.5918 86.041232,189.35866" transform="translate(-4.9164605e-6,0)" id="path5801" style="fill:none;stroke:black;stroke-width:1px;stroke-linecap:butt;stroke-linejoin:miter;stroke-opacity:1" />
    <path d="M 86.041232,186.71801 C 92.930453,189.12443 89.924547,189.09977 86.481341,191.99932" transform="translate(-4.9164605e-6,0)" id="path5805" style="fill:none;stroke:black;stroke-width:1px;stroke-linecap:butt;stroke-linejoin:miter;stroke-opacity:1" />
    <path d="M 119.92959,189.13861 C 121.53596,189.13861 121.86833,189.13861 123.45046,189.13861" transform="translate(-4.9164605e-6,0)" id="path5807" style="fill:none;stroke:black;stroke-width:1px;stroke-linecap:butt;stroke-linejoin:miter;stroke-opacity:1" />
    <path d="M 124.11063,188.03834 C 130.931,189.95432 123.27441,191.55043 123.01036,192.65948" transform="translate(-4.9164605e-6,0)" id="path5809" style="fill:none;stroke:black;stroke-width:1px;stroke-linecap:butt;stroke-linejoin:miter;stroke-opacity:1" />
    <path d="M 155.79845,190.89904 C 156.82537,190.89904 157.85229,190.89904 158.87921,190.89904" transform="translate(-4.9164605e-6,0)" id="path5811" style="fill:none;stroke:black;stroke-width:1px;stroke-linecap:butt;stroke-linejoin:miter;stroke-opacity:1" />
    <path d="M 157.99899,187.37818 C 165.86035,189.26621 166.38493,192.17872 159.53937,193.31964" transform="translate(-4.9164605e-6,0)" id="path5813" style="fill:none;stroke:black;stroke-width:1px;stroke-linecap:butt;stroke-linejoin:miter;stroke-opacity:1" />
    <path d="M 191.22719,189.79877 C 192.98762,189.79877 194.74806,189.79877 196.50849,189.79877" transform="translate(-4.9164605e-6,0)" id="path5815" style="fill:none;stroke:black;stroke-width:1px;stroke-linecap:butt;stroke-linejoin:miter;stroke-opacity:1" />
    <path d="M 194.96811,186.49796 C 198.61327,189.75106 194.2935,190.1291 193.64779,191.77926" transform="translate(-4.9164605e-6,0)" id="path5819" style="fill:none;stroke:black;stroke-width:1px;stroke-linecap:butt;stroke-linejoin:miter;stroke-opacity:1" />
    <path d="M 226.21582,188.47845 C 226.87599,188.47845 227.53615,188.47845 228.19631,188.47845" transform="translate(-4.9164605e-6,0)" id="path5821" style="fill:none;stroke:black;stroke-width:1px;stroke-linecap:butt;stroke-linejoin:miter;stroke-opacity:1" />
    <path d="M 227.53615,184.95758 C 230.92275,189.90664 230.84031,186.98175 226.43588,190.45894" transform="translate(-4.9164605e-6,0)" id="path5823" style="fill:none;stroke:black;stroke-width:1px;stroke-linecap:butt;stroke-linejoin:miter;stroke-opacity:1" />
    <path d="M 231.92453,264.01883 C 230.36154,264.05434 229.01621,264.45507 227.52344,264.67899" id="path5825" style="fill:none;stroke:black;stroke-width:1px;stroke-linecap:butt;stroke-linejoin:miter;stroke-opacity:1" />
    <path d="M 227.52344,261.43319 C 221.60848,267.2876 225.98745,266.79684 227.96355,266.82452" id="path5827" style="fill:none;stroke:black;stroke-width:1px;stroke-linecap:butt;stroke-linejoin:miter;stroke-opacity:1" />
    <path d="M 196.49578,264.67899 C 195.76227,264.67899 195.02875,264.67899 194.29524,264.67899" id="path5829" style="fill:none;stroke:black;stroke-width:1px;stroke-linecap:butt;stroke-linejoin:miter;stroke-opacity:1" />
    <path d="M 194.51529,261.81828 C 189.04439,265.50608 190.54878,265.76704 195.17546,267.9798" id="path5831" style="fill:none;stroke:black;stroke-width:1px;stroke-linecap:butt;stroke-linejoin:miter;stroke-opacity:1" />
    <path d="M 163.26758,264.01883 C 162.49631,263.46703 161.70181,263.5918 160.84699,263.35866" id="path5833" style="fill:none;stroke:black;stroke-width:1px;stroke-linecap:butt;stroke-linejoin:miter;stroke-opacity:1" />
    <path d="M 160.84699,260.71801 C 153.95777,263.12443 156.96367,263.09977 160.40688,265.99932" id="path5835" style="fill:none;stroke:black;stroke-width:1px;stroke-linecap:butt;stroke-linejoin:miter;stroke-opacity:1" />
    <path d="M 126.95863,263.13861 C 125.35226,263.13861 125.01989,263.13861 123.43776,263.13861" id="path5837" style="fill:none;stroke:black;stroke-width:1px;stroke-linecap:butt;stroke-linejoin:miter;stroke-opacity:1" />
    <path d="M 122.99764,261.81829 C 116.17727,263.73427 123.83386,265.33038 124.09791,266.43943" id="path5839" style="fill:none;stroke:black;stroke-width:1px;stroke-linecap:butt;stroke-linejoin:miter;stroke-opacity:1" />
    <path d="M 91.089768,264.89904 C 90.062848,264.89904 89.035928,264.89904 88.009008,264.89904" id="path5841" style="fill:none;stroke:black;stroke-width:1px;stroke-linecap:butt;stroke-linejoin:miter;stroke-opacity:1" />
    <path d="M 90.649662,261.81829 C 82.788302,263.70632 82.263722,266.61883 89.109282,267.75975" id="path5843" style="fill:none;stroke:black;stroke-width:1px;stroke-linecap:butt;stroke-linejoin:miter;stroke-opacity:1" />
    <path d="M 55.661028,263.79877 C 53.900598,263.79877 52.140158,263.79877 50.379728,263.79877" id="path5845" style="fill:none;stroke:black;stroke-width:1px;stroke-linecap:butt;stroke-linejoin:miter;stroke-opacity:1" />
    <path d="M 51.350461,261.17764 C 44.514514,263.8806 51.034827,265.02883 51.680537,266.67899" id="path5847" style="fill:none;stroke:black;stroke-width:1px;stroke-linecap:butt;stroke-linejoin:miter;stroke-opacity:1" />
    <path d="M 20.672398,262.47845 C 20.012228,262.47845 19.352068,262.47845 18.691908,262.47845" id="path5849" style="fill:none;stroke:black;stroke-width:1px;stroke-linecap:butt;stroke-linejoin:miter;stroke-opacity:1" />
    <path d="M 19.352068,258.95758 C 14.667631,264.10631 11.945679,261.61286 20.452338,264.45894" id="path5851" style="fill:none;stroke:black;stroke-width:1px;stroke-linecap:butt;stroke-linejoin:miter;stroke-opacity:1" />
  </g>
</svg>
