<?xml version="1.0" encoding="UTF-8" standalone="no"?>
<svg
   xmlns:dc="http://purl.org/dc/elements/1.1/"
   xmlns:cc="http://creativecommons.org/ns#"
   xmlns:rdf="http://www.w3.org/1999/02/22-rdf-syntax-ns#"
   xmlns:svg="http://www.w3.org/2000/svg"
   xmlns="http://www.w3.org/2000/svg"
   viewBox="0 0 64 64"
   version="1.1"
   id="svg4684"
   height="64"
   width="64">
  <defs
     id="defs4686" />
  <metadata
     id="metadata4689">
    <rdf:RDF>
      <cc:Work
         rdf:about="">
        <dc:format>image/svg+xml</dc:format>
        <dc:type
           rdf:resource="http://purl.org/dc/dcmitype/StillImage" />
        <dc:title></dc:title>
      </cc:Work>
    </rdf:RDF>
  </metadata>
  <path
     id="path4164"
     d="M 29.90625 0.80078125 C 19.597951 0.85390445 20.435734 8.2271508 23.78125 15.251953 C 24.77594 18.093065 20.180039 18.733608 17.408203 20.525391 C 9.7444891 25.25369 12.843016 35.519914 15.609375 42.257812 C 17.294995 47.566426 19.38465 53.400792 17.523438 58.945312 C 21.845215 64.793436 34.025169 67.842439 40.498047 58.513672 C 39.06944 54.354795 41.279037 48.085182 43.181641 43.037109 C 45.603104 36.628911 48.582556 30.098555 45.212891 23.724609 C 43.576113 19.431755 35.526752 20.091536 36.291016 15.126953 C 38.402341 3.5818822 39.679898 1.4031514 29.90625 0.80078125 z M 34.853516 3.640625 L 34.859375 3.640625 L 34.3125 7.5683594 C 31.309531 10.354889 28.175412 9.971219 25.216797 7.5117188 L 24.472656 3.7382812 L 24.478516 3.7382812 C 24.579089 4.322366 26.850165 4.6142758 29.642578 4.5878906 C 32.43987 4.5614596 34.763968 4.2842796 34.853516 3.640625 z M 27.425781 5.6464844 C 27.149838 5.6660554 26.936077 5.8990627 26.9375 6.1796875 C 26.9386 6.4722722 27.17253 6.7101109 27.460938 6.7109375 C 27.750712 6.7120775 27.985205 6.4736629 27.986328 6.1796875 C 27.98712 5.8843396 27.752066 5.6453434 27.460938 5.6464844 C 27.449198 5.6460869 27.437481 5.6460869 27.425781 5.6464844 z M 36.759766 6.2226562 L 36.876953 6.2226562 L 35.353516 13.349609 C 34.907399 13.768376 34.463342 14.117857 34.021484 14.421875 C 34.113764 17.979312 34.938864 19.666951 38.792969 21.167969 C 42.243071 22.511644 44.726926 24.648629 44.814453 29.203125 C 44.878153 32.517294 43.98271 35.67868 41.927734 40.849609 C 39.949093 45.828453 37.598703 53.964201 38.835938 58.222656 C 32.569004 65.074849 25.997702 63.87911 19.720703 58.244141 C 21.250776 53.169957 18.961783 45.605383 16.556641 39.089844 C 11.966345 26.654713 15.64182 22.827957 21.525391 20.650391 C 24.611568 19.508167 25.478712 17.810003 25.560547 14.658203 C 25.145428 14.433238 24.443139 14.382299 24.345703 13.917969 L 22.738281 6.2578125 C 23.624939 7.8105199 25.791625 9.1033703 26.802734 9.7714844 L 27.007812 15.244141 C 28.482623 15.789608 29.919084 15.795435 31.458984 15.792969 L 31.488281 10.179688 C 32.913359 9.8842141 35.252104 8.3618799 36.759766 6.2226562 z M 30.277344 6.4941406 C 29.860146 6.4930706 29.522215 6.8485423 29.521484 7.2890625 C 29.520511 7.730852 29.858944 8.0889626 30.277344 8.0878906 C 30.694476 8.0870646 31.03222 7.7295114 31.03125 7.2890625 C 31.030521 6.8498821 30.693274 6.4949651 30.277344 6.4941406 z M 33.126953 6.7753906 C 32.935563 6.7880226 32.78598 6.9439512 32.785156 7.1308594 C 32.784641 7.3285415 32.949472 7.4889682 33.152344 7.4882812 C 33.353959 7.4872213 33.518091 7.3273062 33.517578 7.1308594 C 33.516278 6.9356803 33.352658 6.7764418 33.152344 6.7753906 C 33.143744 6.7750908 33.135603 6.7750908 33.126953 6.7753906 z M 26.511719 6.8515625 C 26.485959 6.8515908 26.46163 6.8549963 26.4375 6.8632812 C 26.304902 6.9089612 26.238401 7.0650468 26.289062 7.2109375 C 26.339972 7.3570455 26.488659 7.4375627 26.621094 7.390625 C 26.752799 7.343986 26.818373 7.1881982 26.767578 7.0429688 C 26.727238 6.9281632 26.623275 6.8512956 26.511719 6.8515625 z M 22.820312 22.615234 C 21.396408 22.616534 19.721863 24.054607 18.728516 26.130859 C 17.507415 28.682576 17.716154 31.324414 19.193359 32.03125 C 20.670556 32.738031 22.856844 31.242977 24.078125 28.691406 C 25.299227 26.139687 25.092439 23.497853 23.615234 22.791016 C 23.373658 22.6749 23.106612 22.615449 22.820312 22.615234 z M 19.708984 33.796875 C 19.673084 33.795475 19.637268 33.796189 19.601562 33.798828 C 18.788282 33.860798 18.204026 34.899404 18.296875 36.121094 C 18.389235 37.344043 19.125408 38.287226 19.939453 38.224609 C 20.752734 38.162639 21.336989 37.122079 21.244141 35.900391 C 21.156321 34.739963 21.022899 33.821895 20.246094 33.796875 L 19.708984 33.796875 z M 30.666016 56.359375 C 26.059011 56.290285 21.164232 57.605719 21.115234 58.095703 C 22.779117 59.411874 29.389486 64.658566 37.539062 58.453125 C 36.091868 56.939315 33.430221 56.400833 30.666016 56.359375 z "
     style="opacity:1;fill:#a2c4c5;fill-opacity:1;fill-rule:evenodd;stroke:none;stroke-width:1px;stroke-linecap:butt;stroke-linejoin:miter;stroke-opacity:1;image-rendering:optimizeSpeed" />
</svg>
