<?xml version="1.0" encoding="UTF-8" standalone="no"?>
<!-- Created with Inkscape (http://www.inkscape.org/) -->

<svg
   xmlns:dc="http://purl.org/dc/elements/1.1/"
   xmlns:cc="http://creativecommons.org/ns#"
   xmlns:rdf="http://www.w3.org/1999/02/22-rdf-syntax-ns#"
   xmlns:svg="http://www.w3.org/2000/svg"
   xmlns="http://www.w3.org/2000/svg"
   xmlns:sodipodi="http://sodipodi.sourceforge.net/DTD/sodipodi-0.dtd"
   xmlns:inkscape="http://www.inkscape.org/namespaces/inkscape"
   width="77.65155"
   height="160.37213"
   id="svg2859"
   version="1.1"
   inkscape:version="0.91 r13725"
   sodipodi:docname="it-icon-00.svg">
  <defs
     id="defs2861">
    <inkscape:perspective
       sodipodi:type="inkscape:persp3d"
       inkscape:vp_x="0 : 80.186066 : 1"
       inkscape:vp_y="0 : 1000 : 0"
       inkscape:vp_z="77.65155 : 80.186066 : 1"
       inkscape:persp3d-origin="38.825775 : 53.457377 : 1"
       id="perspective24" />
    <clipPath
       id="clipPath4372"
       clipPathUnits="userSpaceOnUse">
      <path
         style="fill:#437471;fill-opacity:1;fill-rule:evenodd;stroke:none"
         d="m 166.25,69.250003 229.75,0 L 371.25,185 c -65.01702,61.03126 -127.79028,43.59646 -178.75,9.25 z"
         id="path4374"
         inkscape:connector-curvature="0" />
    </clipPath>
    <clipPath
       id="clipPath4376"
       clipPathUnits="userSpaceOnUse">
      <path
         style="fill:#437471;fill-opacity:1;fill-rule:evenodd;stroke:none"
         d="m 166.25,69.250003 229.75,0 L 371.25,185 c -65.01702,61.03126 -127.79028,43.59646 -178.75,9.25 z"
         id="path4378"
         inkscape:connector-curvature="0" />
    </clipPath>
  </defs>
  <sodipodi:namedview
     id="base"
     pagecolor="#ffffff"
     bordercolor="#ffffff"
     borderopacity="0.0"
     inkscape:pageopacity="0.0"
     inkscape:pageshadow="0"
     inkscape:zoom="0.25000001"
     inkscape:cx="-1398.8541"
     inkscape:cy="98.298865"
     inkscape:document-units="px"
     inkscape:current-layer="svg2859"
     showgrid="false"
     inkscape:window-width="1366"
     inkscape:window-height="705"
     inkscape:window-x="-8"
     inkscape:window-y="-8"
     inkscape:window-maximized="1"
     showguides="true"
     inkscape:guide-bbox="true"
     borderlayer="false"
     fit-margin-top="0"
     fit-margin-left="0"
     fit-margin-right="0"
     fit-margin-bottom="0"
     inkscape:snap-perpendicular="true"
     inkscape:snap-tangential="true" />
  <metadata
     id="metadata2864">
    <rdf:RDF>
      <cc:Work
         rdf:about="">
        <dc:format>image/svg+xml</dc:format>
        <dc:type
           rdf:resource="http://purl.org/dc/dcmitype/StillImage" />
        <dc:title />
      </cc:Work>
    </rdf:RDF>
  </metadata>
  <g
     inkscape:label="Bottle"
     inkscape:groupmode="layer"
     id="icon-00"
     style="display:inline"
     transform="translate(-500.61432,-388.95142)"
     sodipodi:insensitive="true">
    <g
       id="00"
       transform="matrix(1.6400578,0,0,1.5238938,-329.44242,-287.7872)">
      <path
         sodipodi:nodetypes="ccccccccccc"
         inkscape:connector-curvature="0"
         id="corpo"
         d="m 552.11719,413.08789 c -6.353,1.4119 -13.07147,-0.16578 -19.30274,1.92578 0.368,8.1398 -0.82371,16.72431 -9.1221,18.4625 -9.24278,3.18286 -17.90988,11.30734 -17.56824,21.73943 2.1074,32.32964 25.45495,56.17455 10.61559,82.07971 1.5716,2.30579 4.19136,4.94408 6.55348,6.38426 4.53208,3.01062 9.09046,4.92275 14.08978,5.4629 10.40397,1.09004 23.98928,-2.77331 28.87589,-10.71278 -11.94871,-29.9795 3.92868,-46.3772 10.7931,-70.79914 2.15458,-9.59202 2.19792,-21.66243 -6.27218,-28.31875 -14.50983,-8.53746 -16.83402,-10.44813 -18.66258,-26.22391 z"
         style="fill:#a2c4c5;fill-opacity:1;fill-rule:evenodd;stroke:none" />
      <g
         transform="translate(2.9999999,2.4999999)"
         id="g3388">
        <path
           id="path4364"
           d="m 522.88227,394.82171 32.78849,0 -3.53217,17.00327 c -9.27882,8.96527 -18.23742,6.40416 -25.51008,1.35879 z"
           style="fill:#437471;fill-opacity:1;fill-rule:evenodd;stroke:none"
           inkscape:connector-curvature="0" />
        <path
           clip-path="url(#clipPath4376)"
           id="path4366"
           d="M 234.76462,216.54385 211,104.25 c 0,0 26.25,17.25 46,22.5 19.75,5.25 52.25,0.75 52.25,0.75 l -1.94415,94.94939 c -31.13945,5.90147 -44.31324,3.80057 -72.54123,-5.90554 z"
           style="fill:#5d9596;fill-opacity:1;fill-rule:evenodd;stroke:none"
           transform="matrix(0.14271378,0,0,0.14689648,499.15609,384.64911)"
           inkscape:connector-curvature="0"
           sodipodi:nodetypes="ccsccc" />
        <path
           clip-path="url(#clipPath4372)"
           id="path4368"
           d="m 163.08917,65.200447 c 77.9423,100.895733 160.31254,96.387903 236.25458,-0.106694 z"
           style="fill:#b8d3ce;fill-opacity:1;fill-rule:evenodd;stroke:none"
           transform="matrix(0.14271378,0,0,0.14689648,499.15609,384.64911)"
           inkscape:connector-curvature="0" />
        <path
           id="path4362"
           d="m 526.92077,388.89714 1.72357,9.00022 c 6.85696,5.86725 14.12258,6.78183 21.08223,0.13441 l 1.26589,-9.37171 z"
           style="fill:#88653f;fill-opacity:1;fill-rule:evenodd;stroke:none"
           inkscape:connector-curvature="0" />
        <path
           id="path4333"
           d="m 550.99832,388.57234 c 0,1.60151 -5.48206,2.28596 -12.09376,2.35026 -6.6117,0.0643 -11.9787,-0.6631 -11.99205,-2.11739 -0.013,-1.4173 5.33933,-2.28594 11.95104,-2.35026 6.6117,-0.0643 12.13477,0.75493 12.13477,2.11739 z"
           style="fill:#cbb770;fill-opacity:1;fill-rule:evenodd;stroke:none"
           inkscape:connector-curvature="0" />
        <path
           style="fill:#502d16;fill-opacity:1;fill-rule:evenodd;stroke:none"
           d="m 544.21621,387.78208 a 0.9649889,0.37653418 0 0 0 -0.96499,0.37642 0.9649889,0.37653418 0 0 0 0.96499,0.37671 0.9649889,0.37653418 0 0 0 0.96499,-0.37671 0.9649889,0.37653418 0 0 0 -0.96499,-0.37642 z m -12.35562,0.45675 a 0.984096,0.33109042 0 0 0 -0.98394,0.33109 0.984096,0.33109042 0 0 0 0.98394,0.3311 0.984096,0.33109042 0 0 0 0.98423,-0.3311 0.984096,0.33109042 0 0 0 -0.98423,-0.33109 z m 15.44181,0.30183 a 0.90822491,0.28564662 0 0 0 -0.90814,0.28547 0.90822491,0.28564662 0 0 0 0.90814,0.28576 0.90822491,0.28564662 0 0 0 0.9084,-0.28576 0.90822491,0.28564662 0 0 0 -0.9084,-0.28547 z m -2.08217,5.12331 a 0.67042083,0.61502007 20.774131 0 0 -0.62772,0.43552 0.67042083,0.61502007 20.774131 0 0 0.4811,0.78009 0.67042083,0.61502007 20.774131 0 0 0.80583,-0.40711 0.67042083,0.61502007 20.774131 0 0 -0.4811,-0.7801 0.67042083,0.61502007 20.774131 0 0 -0.17811,-0.0284 z m -11.26464,0.0699 a 0.65278668,0.68165672 0 0 0 -0.6528,0.6817 0.65278668,0.68165672 0 0 0 0.6528,0.68169 0.65278668,0.68165672 0 0 0 0.6528,-0.68169 0.65278668,0.68165672 0 0 0 -0.6528,-0.6817 z m -3.93298,0.23326 a 0.48058694,0.37772701 35.965488 0 0 -0.30829,0.15092 0.48058694,0.37772701 35.965488 0 0 0.19985,0.58558 0.48058694,0.37772701 35.965488 0 0 0.60096,-0.0551 0.48058694,0.37772701 35.965488 0 0 -0.20014,-0.58587 0.48058694,0.37772701 35.965488 0 0 -0.29238,-0.0955 z m 12.67141,2.29871 a 1.0154459,1.1036346 0 0 0 -1.01544,1.10372 1.0154459,1.1036346 0 0 0 1.01544,1.10346 1.0154459,1.1036346 0 0 0 1.01544,-1.10346 1.0154459,1.1036346 0 0 0 -1.01544,-1.10372 z m -10.2779,0.0577 a 0.59903925,0.5310961 75.10835 0 0 -0.15666,0.0275 0.59903925,0.5310961 75.10835 0 0 -0.30856,0.74652 0.59903925,0.5310961 75.10835 0 0 0.69212,0.38791 0.59903925,0.5310961 75.10835 0 0 0.30884,-0.74652 0.59903925,0.5310961 75.10835 0 0 -0.53574,-0.41545 z m 14.14427,0.33196 a 0.49195516,0.49338964 0 0 0 -0.49197,0.49319 0.49195516,0.49338964 0 0 0 0.49197,0.49347 0.49195516,0.49338964 0 0 0 0.49197,-0.49347 0.49195516,0.49338964 0 0 0 -0.49197,-0.49319 z"
           id="path4338"
           inkscape:connector-curvature="0" />
      </g>
      <path
         inkscape:connector-curvature="0"
         id="path4316"
         d="m 539.52688,531.67432 c -5.159,0.23333 -10.41331,0.74648 -15.2835,2.90768 10.21421,8.56475 25.70949,8.6424 35.34099,0.28799 -6.18654,-3.37723 -13.38602,-3.26637 -20.05749,-3.19567 z"
         style="fill:#004455;fill-opacity:1;fill-rule:evenodd;stroke:none" />
      <path
         sodipodi:nodetypes="cccccccccccccccc"
         inkscape:connector-curvature="0"
         id="liq"
         d="m 540.09911,422.62569 c -0.15603,1.3597 -0.2273,3.48809 -0.71694,5.19278 -0.31838,0.97288 -0.77825,1.76031 -1.14564,2.62017 -4.58016,9.81354 -19.05694,7.96289 -22.02981,19.37537 -2.99554,16.19681 5.29541,30.83656 8.6887,46.18896 1.96,8.23575 3.64508,17.31041 2.71905,25.92901 -0.40875,2.90858 -0.7585,5.68507 -1.87521,8.14515 -0.69997,1.53536 -1.46951,3.01799 -1.39687,4.68757 4.92257,3.91871 10.20485,5.76116 15.54108,6.22004 6.7836,0.73128 13.99248,-1.19354 19.72311,-5.99181 -5.88214,-11.60321 -4.37185,-25.63929 -1.75945,-37.76367 3.33264,-13.4121 11.88166,-26.42131 12.1774,-40.44672 0.36042,-4.22563 -0.76612,-7.27641 -3.04501,-10.28018 -7.06496,-9.2418 -15.0206,-9.20896 -19.11158,-23.82336 -0.4519,-0.79462 -3.63184,-0.83647 -4.78947,-0.78015 -1.18657,0.0525 -2.65945,0.30626 -2.97936,0.72684 z"
         style="fill:#800080;fill-opacity:0.85207101;fill-rule:evenodd;stroke:none" />
      <path
         inkscape:connector-curvature="0"
         id="luz"
         d="m 523.1283,437.13632 a 8.2772158,14.566864 24.323613 0 0 -11.35815,10.04536 8.2772158,14.566864 24.323613 0 0 1.28654,16.86637 8.2772158,14.566864 24.323613 0 0 13.56887,-9.54756 8.2772158,14.566864 24.323613 0 0 -1.28654,-16.86637 8.2772158,14.566864 24.323613 0 0 -2.21072,-0.4978 z m -8.52121,31.96226 a 6.3408608,4.1022546 85.958404 0 0 -0.41047,3.4e-4 6.3408608,4.1022546 85.958404 0 0 -3.62318,6.64327 6.3408608,4.1022546 85.958404 0 0 4.5567,6.00385 6.3408608,4.1022546 85.958404 0 0 3.62317,-6.64328 6.3408608,4.1022546 85.958404 0 0 -4.14622,-6.00418 z m 16.5234,22.6196 a 1.7545,2.2420526 9.903033 0 0 -1.84465,1.87809 1.7545,2.2420526 9.903033 0 0 1.29523,2.55225 1.7545,2.2420526 9.903033 0 0 2.14325,-1.8506 1.7545,2.2420526 9.903033 0 0 -1.29523,-2.55225 1.7545,2.2420526 9.903033 0 0 -0.2986,-0.0275 z"
         style="fill:#ffffff;fill-opacity:0.67455618;fill-rule:evenodd;stroke:none" />
      <ellipse
         inkscape:label="#liqT"
         ry="0.79791296"
         rx="3.8965492"
         cy="422.67154"
         cx="543.97284"
         id="liqT"
         style="fill:#9b25b3;fill-opacity:0.85207101;stroke:none" />
    </g>
  </g>
</svg>
